<?xml version="1.0" encoding="UTF-8" ?>
<svg version="1.1" width="360" height="630" xmlns="http://www.w3.org/2000/svg">
<rect x="150" y="0" width="30" height="30" fill="#0CB612" />
<rect x="120" y="30" width="30" height="30" fill="#0CB612" />
<rect x="180" y="30" width="30" height="30" fill="#0CB612" />
<rect x="210" y="30" width="30" height="30" fill="#0CB612" />
<rect x="90" y="60" width="30" height="30" fill="#0CB612" />
<rect x="240" y="60" width="30" height="30" fill="#0CB612" />
<rect x="60" y="90" width="30" height="30" fill="#0CB612" />
<rect x="270" y="90" width="30" height="30" fill="#0CB612" />
<rect x="60" y="120" width="30" height="30" fill="#0CB612" />
<rect x="270" y="120" width="30" height="30" fill="#0CB612" />
<rect x="30" y="150" width="30" height="30" fill="#0CB612" />
<rect x="300" y="150" width="30" height="30" fill="#0CB612" />
<rect x="0" y="180" width="30" height="30" fill="#0CB612" />
<rect x="330" y="180" width="30" height="30" fill="#0CB612" />
<rect x="30" y="210" width="30" height="30" fill="#0CB612" />
<rect x="60" y="210" width="30" height="30" fill="#0CB612" />
<rect x="270" y="210" width="30" height="30" fill="#0CB612" />
<rect x="300" y="210" width="30" height="30" fill="#0CB612" />
<rect x="60" y="240" width="30" height="30" fill="#0CB612" />
<rect x="270" y="240" width="30" height="30" fill="#0CB612" />
<rect x="30" y="270" width="30" height="30" fill="#0CB612" />
<rect x="270" y="270" width="30" height="30" fill="#0CB612" />
<rect x="60" y="300" width="30" height="30" fill="#0CB612" />
<rect x="270" y="300" width="30" height="30" fill="#0CB612" />
<rect x="60" y="330" width="30" height="30" fill="#0CB612" />
<rect x="270" y="330" width="30" height="30" fill="#0CB612" />
<rect x="60" y="360" width="30" height="30" fill="#0CB612" />
<rect x="270" y="360" width="30" height="30" fill="#0CB612" />
<rect x="60" y="390" width="30" height="30" fill="#0CB612" />
<rect x="270" y="390" width="30" height="30" fill="#0CB612" />
<rect x="60" y="420" width="30" height="30" fill="#0CB612" />
<rect x="270" y="420" width="30" height="30" fill="#0CB612" />
<rect x="90" y="450" width="30" height="30" fill="#0CB612" />
<rect x="240" y="450" width="30" height="30" fill="#0CB612" />
<rect x="90" y="480" width="30" height="30" fill="#0CB612" />
<rect x="240" y="480" width="30" height="30" fill="#0CB612" />
<rect x="90" y="510" width="30" height="30" fill="#0CB612" />
<rect x="240" y="510" width="30" height="30" fill="#0CB612" />
<rect x="90" y="540" width="30" height="30" fill="#0CB612" />
<rect x="240" y="540" width="30" height="30" fill="#0CB612" />
<rect x="90" y="570" width="30" height="30" fill="#0CB612" />
<rect x="240" y="570" width="30" height="30" fill="#0CB612" />
<rect x="120" y="600" width="30" height="30" fill="#0CB612" />
<rect x="150" y="600" width="30" height="30" fill="#0CB612" />
<rect x="180" y="600" width="30" height="30" fill="#0CB612" />
<rect x="210" y="600" width="30" height="30" fill="#0CB612" />
</svg>