<?xml version="1.0" encoding="UTF-8" ?>
<svg version="1.1" width="1050" height="1050" xmlns="http://www.w3.org/2000/svg">
<rect x="330" y="120" width="30" height="30" fill="#0CB612" />
<rect x="360" y="120" width="30" height="30" fill="#0CB612" />
<rect x="390" y="120" width="30" height="30" fill="#0CB612" />
<rect x="420" y="120" width="30" height="30" fill="#0CB612" />
<rect x="450" y="120" width="30" height="30" fill="#0CB612" />
<rect x="480" y="120" width="30" height="30" fill="#0CB612" />
<rect x="510" y="120" width="30" height="30" fill="#0CB612" />
<rect x="540" y="120" width="30" height="30" fill="#0CB612" />
<rect x="570" y="120" width="30" height="30" fill="#0CB612" />
<rect x="600" y="120" width="30" height="30" fill="#0CB612" />
<rect x="630" y="120" width="30" height="30" fill="#0CB612" />
<rect x="660" y="120" width="30" height="30" fill="#0CB612" />
<rect x="300" y="150" width="30" height="30" fill="#0CB612" />
<rect x="330" y="150" width="30" height="30" fill="#0CB612" />
<rect x="360" y="150" width="30" height="30" fill="#303130" />
<rect x="390" y="150" width="30" height="30" fill="#303130" />
<rect x="420" y="150" width="30" height="30" fill="#303130" />
<rect x="450" y="150" width="30" height="30" fill="#303130" />
<rect x="480" y="150" width="30" height="30" fill="#303130" />
<rect x="510" y="150" width="30" height="30" fill="#303130" />
<rect x="540" y="150" width="30" height="30" fill="#303130" />
<rect x="570" y="150" width="30" height="30" fill="#303130" />
<rect x="600" y="150" width="30" height="30" fill="#303130" />
<rect x="630" y="150" width="30" height="30" fill="#303130" />
<rect x="660" y="150" width="30" height="30" fill="#0CB612" />
<rect x="690" y="150" width="30" height="30" fill="#0CB612" />
<rect x="300" y="180" width="30" height="30" fill="#0CB612" />
<rect x="330" y="180" width="30" height="30" fill="#303130" />
<rect x="660" y="180" width="30" height="30" fill="#303130" />
<rect x="690" y="180" width="30" height="30" fill="#0CB612" />
<rect x="300" y="210" width="30" height="30" fill="#0CB612" />
<rect x="330" y="210" width="30" height="30" fill="#303130" />
<rect x="660" y="210" width="30" height="30" fill="#303130" />
<rect x="690" y="210" width="30" height="30" fill="#0CB612" />
<rect x="300" y="240" width="30" height="30" fill="#0CB612" />
<rect x="330" y="240" width="30" height="30" fill="#303130" />
<rect x="660" y="240" width="30" height="30" fill="#303130" />
<rect x="690" y="240" width="30" height="30" fill="#0CB612" />
<rect x="300" y="270" width="30" height="30" fill="#0CB612" />
<rect x="330" y="270" width="30" height="30" fill="#303130" />
<rect x="660" y="270" width="30" height="30" fill="#303130" />
<rect x="690" y="270" width="30" height="30" fill="#0CB612" />
<rect x="300" y="300" width="30" height="30" fill="#0CB612" />
<rect x="330" y="300" width="30" height="30" fill="#303130" />
<rect x="660" y="300" width="30" height="30" fill="#303130" />
<rect x="690" y="300" width="30" height="30" fill="#0CB612" />
<rect x="300" y="330" width="30" height="30" fill="#0CB612" />
<rect x="330" y="330" width="30" height="30" fill="#303130" />
<rect x="660" y="330" width="30" height="30" fill="#303130" />
<rect x="690" y="330" width="30" height="30" fill="#0CB612" />
<rect x="300" y="360" width="30" height="30" fill="#0CB612" />
<rect x="330" y="360" width="30" height="30" fill="#303130" />
<rect x="660" y="360" width="30" height="30" fill="#303130" />
<rect x="690" y="360" width="30" height="30" fill="#0CB612" />
<rect x="300" y="390" width="30" height="30" fill="#0CB612" />
<rect x="330" y="390" width="30" height="30" fill="#303130" />
<rect x="660" y="390" width="30" height="30" fill="#303130" />
<rect x="690" y="390" width="30" height="30" fill="#0CB612" />
<rect x="300" y="420" width="30" height="30" fill="#0CB612" />
<rect x="330" y="420" width="30" height="30" fill="#303130" />
<rect x="660" y="420" width="30" height="30" fill="#303130" />
<rect x="690" y="420" width="30" height="30" fill="#0CB612" />
<rect x="300" y="450" width="30" height="30" fill="#0CB612" />
<rect x="330" y="450" width="30" height="30" fill="#303130" />
<rect x="660" y="450" width="30" height="30" fill="#303130" />
<rect x="690" y="450" width="30" height="30" fill="#0CB612" />
<rect x="300" y="480" width="30" height="30" fill="#0CB612" />
<rect x="330" y="480" width="30" height="30" fill="#0CB612" />
<rect x="360" y="480" width="30" height="30" fill="#303130" />
<rect x="390" y="480" width="30" height="30" fill="#303130" />
<rect x="420" y="480" width="30" height="30" fill="#303130" />
<rect x="450" y="480" width="30" height="30" fill="#303130" />
<rect x="480" y="480" width="30" height="30" fill="#303130" />
<rect x="510" y="480" width="30" height="30" fill="#303130" />
<rect x="540" y="480" width="30" height="30" fill="#303130" />
<rect x="570" y="480" width="30" height="30" fill="#303130" />
<rect x="600" y="480" width="30" height="30" fill="#303130" />
<rect x="630" y="480" width="30" height="30" fill="#303130" />
<rect x="660" y="480" width="30" height="30" fill="#0CB612" />
<rect x="690" y="480" width="30" height="30" fill="#0CB612" />
<rect x="330" y="510" width="30" height="30" fill="#0CB612" />
<rect x="360" y="510" width="30" height="30" fill="#0CB612" />
<rect x="390" y="510" width="30" height="30" fill="#0CB612" />
<rect x="420" y="510" width="30" height="30" fill="#0CB612" />
<rect x="450" y="510" width="30" height="30" fill="#0CB612" />
<rect x="480" y="510" width="30" height="30" fill="#0CB612" />
<rect x="510" y="510" width="30" height="30" fill="#0CB612" />
<rect x="540" y="510" width="30" height="30" fill="#0CB612" />
<rect x="570" y="510" width="30" height="30" fill="#0CB612" />
<rect x="600" y="510" width="30" height="30" fill="#0CB612" />
<rect x="630" y="510" width="30" height="30" fill="#0CB612" />
<rect x="660" y="510" width="30" height="30" fill="#0CB612" />
</svg>