<?xml version="1.0" encoding="UTF-8" ?>
<svg version="1.1" width="300" height="600" xmlns="http://www.w3.org/2000/svg">
<rect x="90" y="30" width="30" height="30" fill="#605414" />
<rect x="120" y="30" width="30" height="30" fill="#605414" />
<rect x="150" y="30" width="30" height="30" fill="#605414" />
<rect x="180" y="30" width="30" height="30" fill="#605414" />
<rect x="60" y="60" width="30" height="30" fill="#322E19" />
<rect x="90" y="60" width="30" height="30" fill="#89750C" />
<rect x="120" y="60" width="30" height="30" fill="#89750C" />
<rect x="150" y="60" width="30" height="30" fill="#89750C" />
<rect x="180" y="60" width="30" height="30" fill="#89750C" />
<rect x="210" y="60" width="30" height="30" fill="#322E19" />
<rect x="30" y="90" width="30" height="30" fill="#322E19" />
<rect x="60" y="90" width="30" height="30" fill="#524C2B" />
<rect x="90" y="90" width="30" height="30" fill="#524C2B" />
<rect x="120" y="90" width="30" height="30" fill="#524C2B" />
<rect x="150" y="90" width="30" height="30" fill="#524C2B" />
<rect x="180" y="90" width="30" height="30" fill="#524C2B" />
<rect x="210" y="90" width="30" height="30" fill="#524C2B" />
<rect x="240" y="90" width="30" height="30" fill="#322E19" />
<rect x="0" y="120" width="30" height="30" fill="#322E19" />
<rect x="30" y="120" width="30" height="30" fill="#524C2B" />
<rect x="60" y="120" width="30" height="30" fill="#524C2B" />
<rect x="90" y="120" width="30" height="30" fill="#524C2B" />
<rect x="120" y="120" width="30" height="30" fill="#89750C" />
<rect x="150" y="120" width="30" height="30" fill="#89750C" />
<rect x="180" y="120" width="30" height="30" fill="#89750C" />
<rect x="210" y="120" width="30" height="30" fill="#524C2B" />
<rect x="240" y="120" width="30" height="30" fill="#524C2B" />
<rect x="270" y="120" width="30" height="30" fill="#322E19" />
<rect x="0" y="150" width="30" height="30" fill="#605414" />
<rect x="30" y="150" width="30" height="30" fill="#89750C" />
<rect x="60" y="150" width="30" height="30" fill="#524C2B" />
<rect x="90" y="150" width="30" height="30" fill="#89750C" />
<rect x="120" y="150" width="30" height="30" fill="#AEDCC6" />
<rect x="150" y="150" width="30" height="30" fill="#AEDCC6" />
<rect x="180" y="150" width="30" height="30" fill="#AEDCC6" />
<rect x="210" y="150" width="30" height="30" fill="#89750C" />
<rect x="240" y="150" width="30" height="30" fill="#524C2B" />
<rect x="270" y="150" width="30" height="30" fill="#605414" />
<rect x="0" y="180" width="30" height="30" fill="#605414" />
<rect x="30" y="180" width="30" height="30" fill="#89750C" />
<rect x="60" y="180" width="30" height="30" fill="#524C2B" />
<rect x="90" y="180" width="30" height="30" fill="#89750C" />
<rect x="120" y="180" width="30" height="30" fill="#7FC8B5" />
<rect x="150" y="180" width="30" height="30" fill="#D9FEF0" />
<rect x="180" y="180" width="30" height="30" fill="#7FC8B5" />
<rect x="210" y="180" width="30" height="30" fill="#89750C" />
<rect x="240" y="180" width="30" height="30" fill="#524C2B" />
<rect x="270" y="180" width="30" height="30" fill="#605414" />
<rect x="0" y="210" width="30" height="30" fill="#322E19" />
<rect x="30" y="210" width="30" height="30" fill="#524C2B" />
<rect x="60" y="210" width="30" height="30" fill="#524C2B" />
<rect x="90" y="210" width="30" height="30" fill="#89750C" />
<rect x="120" y="210" width="30" height="30" fill="#AEDCC6" />
<rect x="150" y="210" width="30" height="30" fill="#D9FEF0" />
<rect x="180" y="210" width="30" height="30" fill="#D9FEF0" />
<rect x="210" y="210" width="30" height="30" fill="#89750C" />
<rect x="240" y="210" width="30" height="30" fill="#524C2B" />
<rect x="270" y="210" width="30" height="30" fill="#322E19" />
<rect x="30" y="240" width="30" height="30" fill="#322E19" />
<rect x="60" y="240" width="30" height="30" fill="#524C2B" />
<rect x="90" y="240" width="30" height="30" fill="#524C2B" />
<rect x="120" y="240" width="30" height="30" fill="#89750C" />
<rect x="150" y="240" width="30" height="30" fill="#89750C" />
<rect x="180" y="240" width="30" height="30" fill="#89750C" />
<rect x="210" y="240" width="30" height="30" fill="#524C2B" />
<rect x="240" y="240" width="30" height="30" fill="#322E19" />
<rect x="0" y="270" width="30" height="30" fill="#322E19" />
<rect x="30" y="270" width="30" height="30" fill="#89750C" />
<rect x="60" y="270" width="30" height="30" fill="#524C2B" />
<rect x="90" y="270" width="30" height="30" fill="#524C2B" />
<rect x="120" y="270" width="30" height="30" fill="#524C2B" />
<rect x="150" y="270" width="30" height="30" fill="#524C2B" />
<rect x="180" y="270" width="30" height="30" fill="#524C2B" />
<rect x="210" y="270" width="30" height="30" fill="#524C2B" />
<rect x="240" y="270" width="30" height="30" fill="#89750C" />
<rect x="270" y="270" width="30" height="30" fill="#322E19" />
<rect x="30" y="300" width="30" height="30" fill="#322E19" />
<rect x="60" y="300" width="30" height="30" fill="#89750C" />
<rect x="90" y="300" width="30" height="30" fill="#89750C" />
<rect x="120" y="300" width="30" height="30" fill="#89750C" />
<rect x="150" y="300" width="30" height="30" fill="#89750C" />
<rect x="180" y="300" width="30" height="30" fill="#89750C" />
<rect x="210" y="300" width="30" height="30" fill="#89750C" />
<rect x="240" y="300" width="30" height="30" fill="#322E19" />
<rect x="60" y="330" width="30" height="30" fill="#322E19" />
<rect x="90" y="330" width="30" height="30" fill="#524C2B" />
<rect x="120" y="330" width="30" height="30" fill="#89750C" />
<rect x="150" y="330" width="30" height="30" fill="#89750C" />
<rect x="180" y="330" width="30" height="30" fill="#524C2B" />
<rect x="210" y="330" width="30" height="30" fill="#322E19" />
<rect x="90" y="360" width="30" height="30" fill="#322E19" />
<rect x="120" y="360" width="30" height="30" fill="#89750C" />
<rect x="150" y="360" width="30" height="30" fill="#89750C" />
<rect x="180" y="360" width="30" height="30" fill="#322E19" />
<rect x="120" y="390" width="30" height="30" fill="#605414" />
<rect x="150" y="390" width="30" height="30" fill="#605414" />
</svg>