<?xml version="1.0" encoding="UTF-8" ?>
<svg version="1.1" width="1050" height="1050" xmlns="http://www.w3.org/2000/svg">
<rect x="240" y="270" width="30" height="30" fill="#0CB612" />
<rect x="270" y="270" width="30" height="30" fill="#0CB612" />
<rect x="300" y="270" width="30" height="30" fill="#0CB612" />
<rect x="330" y="270" width="30" height="30" fill="#0CB612" />
<rect x="360" y="270" width="30" height="30" fill="#0CB612" />
<rect x="390" y="270" width="30" height="30" fill="#0CB612" />
<rect x="420" y="270" width="30" height="30" fill="#0CB612" />
<rect x="450" y="270" width="30" height="30" fill="#0CB612" />
<rect x="480" y="270" width="30" height="30" fill="#0CB612" />
<rect x="510" y="270" width="30" height="30" fill="#0CB612" />
<rect x="540" y="270" width="30" height="30" fill="#0CB612" />
<rect x="570" y="270" width="30" height="30" fill="#0CB612" />
<rect x="600" y="270" width="30" height="30" fill="#0CB612" />
<rect x="630" y="270" width="30" height="30" fill="#0CB612" />
<rect x="660" y="270" width="30" height="30" fill="#0CB612" />
<rect x="690" y="270" width="30" height="30" fill="#0CB612" />
<rect x="720" y="270" width="30" height="30" fill="#0CB612" />
<rect x="750" y="270" width="30" height="30" fill="#0CB612" />
<rect x="780" y="270" width="30" height="30" fill="#0CB612" />
<rect x="210" y="300" width="30" height="30" fill="#0CB612" />
<rect x="240" y="300" width="30" height="30" fill="#0CB612" />
<rect x="270" y="300" width="30" height="30" fill="#303130" />
<rect x="300" y="300" width="30" height="30" fill="#303130" />
<rect x="330" y="300" width="30" height="30" fill="#303130" />
<rect x="360" y="300" width="30" height="30" fill="#303130" />
<rect x="390" y="300" width="30" height="30" fill="#303130" />
<rect x="420" y="300" width="30" height="30" fill="#303130" />
<rect x="450" y="300" width="30" height="30" fill="#303130" />
<rect x="480" y="300" width="30" height="30" fill="#303130" />
<rect x="510" y="300" width="30" height="30" fill="#303130" />
<rect x="540" y="300" width="30" height="30" fill="#303130" />
<rect x="570" y="300" width="30" height="30" fill="#303130" />
<rect x="600" y="300" width="30" height="30" fill="#303130" />
<rect x="630" y="300" width="30" height="30" fill="#303130" />
<rect x="660" y="300" width="30" height="30" fill="#303130" />
<rect x="690" y="300" width="30" height="30" fill="#303130" />
<rect x="720" y="300" width="30" height="30" fill="#303130" />
<rect x="750" y="300" width="30" height="30" fill="#303130" />
<rect x="780" y="300" width="30" height="30" fill="#0CB612" />
<rect x="810" y="300" width="30" height="30" fill="#0CB612" />
<rect x="180" y="330" width="30" height="30" fill="#0CB612" />
<rect x="210" y="330" width="30" height="30" fill="#0CB612" />
<rect x="240" y="330" width="30" height="30" fill="#303130" />
<rect x="780" y="330" width="30" height="30" fill="#303130" />
<rect x="810" y="330" width="30" height="30" fill="#0CB612" />
<rect x="840" y="330" width="30" height="30" fill="#0CB612" />
<rect x="180" y="360" width="30" height="30" fill="#0CB612" />
<rect x="210" y="360" width="30" height="30" fill="#303130" />
<rect x="810" y="360" width="30" height="30" fill="#303130" />
<rect x="840" y="360" width="30" height="30" fill="#0CB612" />
<rect x="180" y="390" width="30" height="30" fill="#0CB612" />
<rect x="210" y="390" width="30" height="30" fill="#303130" />
<rect x="810" y="390" width="30" height="30" fill="#303130" />
<rect x="840" y="390" width="30" height="30" fill="#0CB612" />
<rect x="180" y="420" width="30" height="30" fill="#0CB612" />
<rect x="210" y="420" width="30" height="30" fill="#303130" />
<rect x="810" y="420" width="30" height="30" fill="#303130" />
<rect x="840" y="420" width="30" height="30" fill="#0CB612" />
<rect x="180" y="450" width="30" height="30" fill="#0CB612" />
<rect x="210" y="450" width="30" height="30" fill="#303130" />
<rect x="810" y="450" width="30" height="30" fill="#303130" />
<rect x="840" y="450" width="30" height="30" fill="#0CB612" />
<rect x="180" y="480" width="30" height="30" fill="#0CB612" />
<rect x="210" y="480" width="30" height="30" fill="#303130" />
<rect x="810" y="480" width="30" height="30" fill="#303130" />
<rect x="840" y="480" width="30" height="30" fill="#0CB612" />
<rect x="180" y="510" width="30" height="30" fill="#0CB612" />
<rect x="210" y="510" width="30" height="30" fill="#303130" />
<rect x="810" y="510" width="30" height="30" fill="#303130" />
<rect x="840" y="510" width="30" height="30" fill="#0CB612" />
<rect x="180" y="540" width="30" height="30" fill="#0CB612" />
<rect x="210" y="540" width="30" height="30" fill="#303130" />
<rect x="810" y="540" width="30" height="30" fill="#303130" />
<rect x="840" y="540" width="30" height="30" fill="#0CB612" />
<rect x="180" y="570" width="30" height="30" fill="#0CB612" />
<rect x="210" y="570" width="30" height="30" fill="#303130" />
<rect x="810" y="570" width="30" height="30" fill="#303130" />
<rect x="840" y="570" width="30" height="30" fill="#0CB612" />
<rect x="180" y="600" width="30" height="30" fill="#0CB612" />
<rect x="210" y="600" width="30" height="30" fill="#303130" />
<rect x="810" y="600" width="30" height="30" fill="#303130" />
<rect x="840" y="600" width="30" height="30" fill="#0CB612" />
<rect x="180" y="630" width="30" height="30" fill="#0CB612" />
<rect x="210" y="630" width="30" height="30" fill="#303130" />
<rect x="810" y="630" width="30" height="30" fill="#303130" />
<rect x="840" y="630" width="30" height="30" fill="#0CB612" />
<rect x="180" y="660" width="30" height="30" fill="#0CB612" />
<rect x="210" y="660" width="30" height="30" fill="#303130" />
<rect x="810" y="660" width="30" height="30" fill="#303130" />
<rect x="840" y="660" width="30" height="30" fill="#0CB612" />
<rect x="180" y="690" width="30" height="30" fill="#0CB612" />
<rect x="210" y="690" width="30" height="30" fill="#303130" />
<rect x="810" y="690" width="30" height="30" fill="#303130" />
<rect x="840" y="690" width="30" height="30" fill="#0CB612" />
<rect x="180" y="720" width="30" height="30" fill="#0CB612" />
<rect x="210" y="720" width="30" height="30" fill="#303130" />
<rect x="810" y="720" width="30" height="30" fill="#303130" />
<rect x="840" y="720" width="30" height="30" fill="#0CB612" />
<rect x="180" y="750" width="30" height="30" fill="#0CB612" />
<rect x="210" y="750" width="30" height="30" fill="#303130" />
<rect x="810" y="750" width="30" height="30" fill="#303130" />
<rect x="840" y="750" width="30" height="30" fill="#0CB612" />
<rect x="180" y="780" width="30" height="30" fill="#0CB612" />
<rect x="210" y="780" width="30" height="30" fill="#303130" />
<rect x="810" y="780" width="30" height="30" fill="#303130" />
<rect x="840" y="780" width="30" height="30" fill="#0CB612" />
<rect x="180" y="810" width="30" height="30" fill="#0CB612" />
<rect x="210" y="810" width="30" height="30" fill="#303130" />
<rect x="810" y="810" width="30" height="30" fill="#303130" />
<rect x="840" y="810" width="30" height="30" fill="#0CB612" />
<rect x="180" y="840" width="30" height="30" fill="#0CB612" />
<rect x="210" y="840" width="30" height="30" fill="#303130" />
<rect x="810" y="840" width="30" height="30" fill="#303130" />
<rect x="840" y="840" width="30" height="30" fill="#0CB612" />
<rect x="180" y="870" width="30" height="30" fill="#0CB612" />
<rect x="210" y="870" width="30" height="30" fill="#0CB612" />
<rect x="240" y="870" width="30" height="30" fill="#303130" />
<rect x="780" y="870" width="30" height="30" fill="#303130" />
<rect x="810" y="870" width="30" height="30" fill="#0CB612" />
<rect x="840" y="870" width="30" height="30" fill="#0CB612" />
<rect x="210" y="900" width="30" height="30" fill="#0CB612" />
<rect x="240" y="900" width="30" height="30" fill="#0CB612" />
<rect x="270" y="900" width="30" height="30" fill="#303130" />
<rect x="300" y="900" width="30" height="30" fill="#303130" />
<rect x="330" y="900" width="30" height="30" fill="#303130" />
<rect x="360" y="900" width="30" height="30" fill="#303130" />
<rect x="390" y="900" width="30" height="30" fill="#303130" />
<rect x="420" y="900" width="30" height="30" fill="#303130" />
<rect x="450" y="900" width="30" height="30" fill="#303130" />
<rect x="480" y="900" width="30" height="30" fill="#303130" />
<rect x="510" y="900" width="30" height="30" fill="#303130" />
<rect x="540" y="900" width="30" height="30" fill="#303130" />
<rect x="570" y="900" width="30" height="30" fill="#303130" />
<rect x="600" y="900" width="30" height="30" fill="#303130" />
<rect x="630" y="900" width="30" height="30" fill="#303130" />
<rect x="660" y="900" width="30" height="30" fill="#303130" />
<rect x="690" y="900" width="30" height="30" fill="#303130" />
<rect x="720" y="900" width="30" height="30" fill="#303130" />
<rect x="750" y="900" width="30" height="30" fill="#303130" />
<rect x="780" y="900" width="30" height="30" fill="#0CB612" />
<rect x="810" y="900" width="30" height="30" fill="#0CB612" />
<rect x="240" y="930" width="30" height="30" fill="#0CB612" />
<rect x="270" y="930" width="30" height="30" fill="#0CB612" />
<rect x="300" y="930" width="30" height="30" fill="#0CB612" />
<rect x="330" y="930" width="30" height="30" fill="#0CB612" />
<rect x="360" y="930" width="30" height="30" fill="#0CB612" />
<rect x="390" y="930" width="30" height="30" fill="#0CB612" />
<rect x="420" y="930" width="30" height="30" fill="#0CB612" />
<rect x="450" y="930" width="30" height="30" fill="#0CB612" />
<rect x="480" y="930" width="30" height="30" fill="#0CB612" />
<rect x="510" y="930" width="30" height="30" fill="#0CB612" />
<rect x="540" y="930" width="30" height="30" fill="#0CB612" />
<rect x="570" y="930" width="30" height="30" fill="#0CB612" />
<rect x="600" y="930" width="30" height="30" fill="#0CB612" />
<rect x="630" y="930" width="30" height="30" fill="#0CB612" />
<rect x="660" y="930" width="30" height="30" fill="#0CB612" />
<rect x="690" y="930" width="30" height="30" fill="#0CB612" />
<rect x="720" y="930" width="30" height="30" fill="#0CB612" />
<rect x="750" y="930" width="30" height="30" fill="#0CB612" />
<rect x="780" y="930" width="30" height="30" fill="#0CB612" />
</svg>