<?xml version="1.0" encoding="UTF-8" ?>
<svg version="1.1" width="270" height="300" xmlns="http://www.w3.org/2000/svg">
<rect x="30" y="30" width="30" height="30" fill="#971414" />
<rect x="0" y="60" width="30" height="30" fill="#971414" />
<rect x="30" y="60" width="30" height="30" fill="#971414" />
<rect x="60" y="60" width="30" height="30" fill="#971414" />
<rect x="90" y="60" width="30" height="30" fill="#971414" />
<rect x="120" y="60" width="30" height="30" fill="#971414" />
<rect x="150" y="60" width="30" height="30" fill="#971414" />
<rect x="180" y="60" width="30" height="30" fill="#971414" />
<rect x="210" y="60" width="30" height="30" fill="#971414" />
<rect x="30" y="90" width="30" height="30" fill="#971414" />
<rect x="60" y="90" width="30" height="30" fill="#B62424" />
<rect x="90" y="90" width="30" height="30" fill="#FFFFFF" />
<rect x="120" y="90" width="30" height="30" fill="#FFFFFF" />
<rect x="150" y="90" width="30" height="30" fill="#FFFFFF" />
<rect x="180" y="90" width="30" height="30" fill="#FFFFFF" />
<rect x="210" y="90" width="30" height="30" fill="#FFFFFF" />
<rect x="30" y="120" width="30" height="30" fill="#971414" />
<rect x="60" y="120" width="30" height="30" fill="#B62424" />
<rect x="90" y="120" width="30" height="30" fill="#FFFFFF" />
<rect x="120" y="120" width="30" height="30" fill="#452E12" />
<rect x="150" y="120" width="30" height="30" fill="#452E12" />
<rect x="180" y="120" width="30" height="30" fill="#452E12" />
<rect x="210" y="120" width="30" height="30" fill="#FFFFFF" />
<rect x="30" y="150" width="30" height="30" fill="#971414" />
<rect x="60" y="150" width="30" height="30" fill="#B62424" />
<rect x="90" y="150" width="30" height="30" fill="#FFFFFF" />
<rect x="120" y="150" width="30" height="30" fill="#160D03" />
<rect x="150" y="150" width="30" height="30" fill="#684720" />
<rect x="180" y="150" width="30" height="30" fill="#160D03" />
<rect x="210" y="150" width="30" height="30" fill="#FFFFFF" />
<rect x="30" y="180" width="30" height="30" fill="#971414" />
<rect x="60" y="180" width="30" height="30" fill="#B62424" />
<rect x="90" y="180" width="30" height="30" fill="#FFFFFF" />
<rect x="120" y="180" width="30" height="30" fill="#452E12" />
<rect x="150" y="180" width="30" height="30" fill="#684720" />
<rect x="180" y="180" width="30" height="30" fill="#684720" />
<rect x="210" y="180" width="30" height="30" fill="#FFFFFF" />
<rect x="30" y="210" width="30" height="30" fill="#971414" />
<rect x="60" y="210" width="30" height="30" fill="#B62424" />
<rect x="90" y="210" width="30" height="30" fill="#FFFFFF" />
<rect x="120" y="210" width="30" height="30" fill="#FFFFFF" />
<rect x="150" y="210" width="30" height="30" fill="#FFFFFF" />
<rect x="180" y="210" width="30" height="30" fill="#FFFFFF" />
<rect x="210" y="210" width="30" height="30" fill="#FFFFFF" />
<rect x="60" y="240" width="30" height="30" fill="#971414" />
<rect x="90" y="240" width="30" height="30" fill="#B62424" />
<rect x="120" y="240" width="30" height="30" fill="#B62424" />
<rect x="150" y="240" width="30" height="30" fill="#B62424" />
<rect x="180" y="240" width="30" height="30" fill="#B62424" />
<rect x="210" y="240" width="30" height="30" fill="#971414" />
<rect x="60" y="270" width="30" height="30" fill="#971414" />
<rect x="90" y="270" width="30" height="30" fill="#B62424" />
<rect x="120" y="270" width="30" height="30" fill="#CF3A3A" />
<rect x="150" y="270" width="30" height="30" fill="#CF3A3A" />
<rect x="180" y="270" width="30" height="30" fill="#CF3A3A" />
<rect x="210" y="270" width="30" height="30" fill="#971414" />
</svg>