<?xml version="1.0" encoding="UTF-8" ?>
<svg version="1.1" width="300" height="270" xmlns="http://www.w3.org/2000/svg">
<rect x="120" y="0" width="30" height="30" fill="#FFFFFF" />
<rect x="90" y="30" width="30" height="30" fill="#1F2020" />
<rect x="120" y="30" width="30" height="30" fill="#1F2020" />
<rect x="150" y="30" width="30" height="30" fill="#1F2020" />
<rect x="180" y="30" width="30" height="30" fill="#1F2020" />
<rect x="60" y="60" width="30" height="30" fill="#1F2020" />
<rect x="90" y="60" width="30" height="30" fill="#1F2020" />
<rect x="120" y="60" width="30" height="30" fill="#303030" />
<rect x="150" y="60" width="30" height="30" fill="#303030" />
<rect x="180" y="60" width="30" height="30" fill="#303030" />
<rect x="210" y="60" width="30" height="30" fill="#3F3F3F" />
<rect x="60" y="90" width="30" height="30" fill="#1F2020" />
<rect x="90" y="90" width="30" height="30" fill="#303030" />
<rect x="120" y="90" width="30" height="30" fill="#3F3F3F" />
<rect x="150" y="90" width="30" height="30" fill="#3F3F3F" />
<rect x="180" y="90" width="30" height="30" fill="#3F3F3F" />
<rect x="210" y="90" width="30" height="30" fill="#3F3F3F" />
<rect x="30" y="120" width="30" height="30" fill="#1F2020" />
<rect x="60" y="120" width="30" height="30" fill="#1F2020" />
<rect x="90" y="120" width="30" height="30" fill="#303030" />
<rect x="120" y="120" width="30" height="30" fill="#DCC4AE" />
<rect x="150" y="120" width="30" height="30" fill="#DCC4AE" />
<rect x="180" y="120" width="30" height="30" fill="#DCC4AE" />
<rect x="210" y="120" width="30" height="30" fill="#3F3F3F" />
<rect x="240" y="120" width="30" height="30" fill="#1F201F" />
<rect x="0" y="150" width="30" height="30" fill="#1F2020" />
<rect x="30" y="150" width="30" height="30" fill="#1F2020" />
<rect x="60" y="150" width="30" height="30" fill="#1F2020" />
<rect x="90" y="150" width="30" height="30" fill="#303030" />
<rect x="120" y="150" width="30" height="30" fill="#160C0C" />
<rect x="150" y="150" width="30" height="30" fill="#FEEDD9" />
<rect x="180" y="150" width="30" height="30" fill="#160C0C" />
<rect x="210" y="150" width="30" height="30" fill="#3F3F3F" />
<rect x="240" y="150" width="30" height="30" fill="#1F201F" />
<rect x="270" y="150" width="30" height="30" fill="#303130" />
<rect x="60" y="180" width="30" height="30" fill="#1F2020" />
<rect x="90" y="180" width="30" height="30" fill="#303030" />
<rect x="120" y="180" width="30" height="30" fill="#DCC4AE" />
<rect x="150" y="180" width="30" height="30" fill="#FEEDD9" />
<rect x="180" y="180" width="30" height="30" fill="#FEEDD9" />
<rect x="210" y="180" width="30" height="30" fill="#3F3F3F" />
<rect x="60" y="210" width="30" height="30" fill="#D8AD1F" />
<rect x="90" y="210" width="30" height="30" fill="#D8AD1F" />
<rect x="120" y="210" width="30" height="30" fill="#FFCB21" />
<rect x="150" y="210" width="30" height="30" fill="#FFCB21" />
<rect x="180" y="210" width="30" height="30" fill="#FFCB21" />
<rect x="210" y="210" width="30" height="30" fill="#FFCB21" />
<rect x="30" y="240" width="30" height="30" fill="#D8AD1F" />
<rect x="60" y="240" width="30" height="30" fill="#1F2020" />
<rect x="90" y="240" width="30" height="30" fill="#303030" />
<rect x="120" y="240" width="30" height="30" fill="#3F3F3F" />
<rect x="150" y="240" width="30" height="30" fill="#3F3F3F" />
<rect x="180" y="240" width="30" height="30" fill="#3F3F3F" />
<rect x="210" y="240" width="30" height="30" fill="#1F2020" />
</svg>