<?xml version="1.0" encoding="UTF-8" ?>
<svg version="1.1" width="360" height="360" xmlns="http://www.w3.org/2000/svg">
<rect x="60" y="0" width="30" height="30" fill="#281A0C" />
<rect x="30" y="30" width="30" height="30" fill="#281A0C" />
<rect x="60" y="30" width="30" height="30" fill="#FFF1C9" />
<rect x="90" y="30" width="30" height="30" fill="#281A0C" />
<rect x="0" y="60" width="30" height="30" fill="#281A0C" />
<rect x="30" y="60" width="30" height="30" fill="#FFF1C9" />
<rect x="60" y="60" width="30" height="30" fill="#FFF1C9" />
<rect x="90" y="60" width="30" height="30" fill="#281A0C" />
<rect x="30" y="90" width="30" height="30" fill="#281A0C" />
<rect x="60" y="90" width="30" height="30" fill="#281A0C" />
<rect x="90" y="90" width="30" height="30" fill="#FFF1C9" />
<rect x="120" y="90" width="30" height="30" fill="#281A0C" />
<rect x="90" y="120" width="30" height="30" fill="#281A0C" />
<rect x="120" y="120" width="30" height="30" fill="#FFF1C9" />
<rect x="150" y="120" width="30" height="30" fill="#281A0C" />
<rect x="180" y="120" width="30" height="30" fill="#281A0C" />
<rect x="210" y="120" width="30" height="30" fill="#281A0C" />
<rect x="240" y="120" width="30" height="30" fill="#281A0C" />
<rect x="120" y="150" width="30" height="30" fill="#281A0C" />
<rect x="150" y="150" width="30" height="30" fill="#FFF1C9" />
<rect x="180" y="150" width="30" height="30" fill="#5C1D00" />
<rect x="210" y="150" width="30" height="30" fill="#9E5635" />
<rect x="240" y="150" width="30" height="30" fill="#5C1D00" />
<rect x="270" y="150" width="30" height="30" fill="#281A0C" />
<rect x="120" y="180" width="30" height="30" fill="#281A0C" />
<rect x="150" y="180" width="30" height="30" fill="#5C1D00" />
<rect x="180" y="180" width="30" height="30" fill="#5C1D00" />
<rect x="210" y="180" width="30" height="30" fill="#5C1D00" />
<rect x="240" y="180" width="30" height="30" fill="#9E5635" />
<rect x="270" y="180" width="30" height="30" fill="#5C1D00" />
<rect x="300" y="180" width="30" height="30" fill="#281A0C" />
<rect x="120" y="210" width="30" height="30" fill="#281A0C" />
<rect x="150" y="210" width="30" height="30" fill="#5C1D00" />
<rect x="180" y="210" width="30" height="30" fill="#5C1D00" />
<rect x="210" y="210" width="30" height="30" fill="#5C1D00" />
<rect x="240" y="210" width="30" height="30" fill="#5C1D00" />
<rect x="270" y="210" width="30" height="30" fill="#9E5635" />
<rect x="300" y="210" width="30" height="30" fill="#5C1D00" />
<rect x="330" y="210" width="30" height="30" fill="#281A0C" />
<rect x="120" y="240" width="30" height="30" fill="#281A0C" />
<rect x="150" y="240" width="30" height="30" fill="#5C1D00" />
<rect x="180" y="240" width="30" height="30" fill="#5C1D00" />
<rect x="210" y="240" width="30" height="30" fill="#5C1D00" />
<rect x="240" y="240" width="30" height="30" fill="#5C1D00" />
<rect x="270" y="240" width="30" height="30" fill="#9E5635" />
<rect x="300" y="240" width="30" height="30" fill="#5C1D00" />
<rect x="330" y="240" width="30" height="30" fill="#281A0C" />
<rect x="150" y="270" width="30" height="30" fill="#281A0C" />
<rect x="180" y="270" width="30" height="30" fill="#5C1D00" />
<rect x="210" y="270" width="30" height="30" fill="#5C1D00" />
<rect x="240" y="270" width="30" height="30" fill="#5C1D00" />
<rect x="270" y="270" width="30" height="30" fill="#5C1D00" />
<rect x="300" y="270" width="30" height="30" fill="#5C1D00" />
<rect x="330" y="270" width="30" height="30" fill="#281A0C" />
<rect x="180" y="300" width="30" height="30" fill="#281A0C" />
<rect x="210" y="300" width="30" height="30" fill="#5C1D00" />
<rect x="240" y="300" width="30" height="30" fill="#5C1D00" />
<rect x="270" y="300" width="30" height="30" fill="#5C1D00" />
<rect x="300" y="300" width="30" height="30" fill="#281A0C" />
<rect x="210" y="330" width="30" height="30" fill="#281A0C" />
<rect x="240" y="330" width="30" height="30" fill="#281A0C" />
<rect x="270" y="330" width="30" height="30" fill="#281A0C" />
</svg>