<?xml version="1.0" encoding="UTF-8" ?>
<svg version="1.1" width="1050" height="1050" xmlns="http://www.w3.org/2000/svg">
<rect x="180" y="390" width="30" height="30" fill="#34737B" />
<rect x="210" y="390" width="30" height="30" fill="#34737B" />
<rect x="240" y="390" width="30" height="30" fill="#34737B" />
<rect x="270" y="390" width="30" height="30" fill="#34737B" />
<rect x="300" y="390" width="30" height="30" fill="#34737B" />
<rect x="330" y="390" width="30" height="30" fill="#34737B" />
<rect x="510" y="390" width="30" height="30" fill="#34737B" />
<rect x="540" y="390" width="30" height="30" fill="#34737B" />
<rect x="570" y="390" width="30" height="30" fill="#34737B" />
<rect x="600" y="390" width="30" height="30" fill="#34737B" />
<rect x="180" y="420" width="30" height="30" fill="#34737B" />
<rect x="210" y="420" width="30" height="30" fill="#34737B" />
<rect x="240" y="420" width="30" height="30" fill="#34737B" />
<rect x="270" y="420" width="30" height="30" fill="#34737B" />
<rect x="300" y="420" width="30" height="30" fill="#34737B" />
<rect x="330" y="420" width="30" height="30" fill="#34737B" />
<rect x="510" y="420" width="30" height="30" fill="#34737B" />
<rect x="540" y="420" width="30" height="30" fill="#34737B" />
<rect x="570" y="420" width="30" height="30" fill="#34737B" />
<rect x="600" y="420" width="30" height="30" fill="#34737B" />
<rect x="120" y="450" width="30" height="30" fill="#34737B" />
<rect x="150" y="450" width="30" height="30" fill="#34737B" />
<rect x="180" y="450" width="30" height="30" fill="#FFFFFF" />
<rect x="210" y="450" width="30" height="30" fill="#FFFFFF" />
<rect x="240" y="450" width="30" height="30" fill="#FFFFFF" />
<rect x="270" y="450" width="30" height="30" fill="#FFFFFF" />
<rect x="300" y="450" width="30" height="30" fill="#BFE5EC" />
<rect x="330" y="450" width="30" height="30" fill="#BFE5EC" />
<rect x="360" y="450" width="30" height="30" fill="#34737B" />
<rect x="390" y="450" width="30" height="30" fill="#34737B" />
<rect x="420" y="450" width="30" height="30" fill="#34737B" />
<rect x="450" y="450" width="30" height="30" fill="#34737B" />
<rect x="480" y="450" width="30" height="30" fill="#34737B" />
<rect x="510" y="450" width="30" height="30" fill="#BFE5EC" />
<rect x="540" y="450" width="30" height="30" fill="#BFE5EC" />
<rect x="570" y="450" width="30" height="30" fill="#BFE5EC" />
<rect x="600" y="450" width="30" height="30" fill="#BFE5EC" />
<rect x="630" y="450" width="30" height="30" fill="#34737B" />
<rect x="660" y="450" width="30" height="30" fill="#34737B" />
<rect x="120" y="480" width="30" height="30" fill="#34737B" />
<rect x="150" y="480" width="30" height="30" fill="#34737B" />
<rect x="180" y="480" width="30" height="30" fill="#FFFFFF" />
<rect x="210" y="480" width="30" height="30" fill="#FFFFFF" />
<rect x="240" y="480" width="30" height="30" fill="#FFFFFF" />
<rect x="270" y="480" width="30" height="30" fill="#FFFFFF" />
<rect x="300" y="480" width="30" height="30" fill="#BFE5EC" />
<rect x="330" y="480" width="30" height="30" fill="#BFE5EC" />
<rect x="360" y="480" width="30" height="30" fill="#34737B" />
<rect x="390" y="480" width="30" height="30" fill="#34737B" />
<rect x="420" y="480" width="30" height="30" fill="#34737B" />
<rect x="450" y="480" width="30" height="30" fill="#34737B" />
<rect x="480" y="480" width="30" height="30" fill="#34737B" />
<rect x="510" y="480" width="30" height="30" fill="#BFE5EC" />
<rect x="540" y="480" width="30" height="30" fill="#BFE5EC" />
<rect x="570" y="480" width="30" height="30" fill="#BFE5EC" />
<rect x="600" y="480" width="30" height="30" fill="#BFE5EC" />
<rect x="630" y="480" width="30" height="30" fill="#34737B" />
<rect x="660" y="480" width="30" height="30" fill="#34737B" />
<rect x="120" y="510" width="30" height="30" fill="#34737B" />
<rect x="150" y="510" width="30" height="30" fill="#34737B" />
<rect x="180" y="510" width="30" height="30" fill="#FFFFFF" />
<rect x="210" y="510" width="30" height="30" fill="#FFFFFF" />
<rect x="240" y="510" width="30" height="30" fill="#FFFFFF" />
<rect x="270" y="510" width="30" height="30" fill="#FFFFFF" />
<rect x="300" y="510" width="30" height="30" fill="#FFFFFF" />
<rect x="330" y="510" width="30" height="30" fill="#FFFFFF" />
<rect x="360" y="510" width="30" height="30" fill="#FFFFFF" />
<rect x="390" y="510" width="30" height="30" fill="#FFFFFF" />
<rect x="420" y="510" width="30" height="30" fill="#FFFFFF" />
<rect x="450" y="510" width="30" height="30" fill="#FFFFFF" />
<rect x="480" y="510" width="30" height="30" fill="#FFFFFF" />
<rect x="510" y="510" width="30" height="30" fill="#FFFFFF" />
<rect x="540" y="510" width="30" height="30" fill="#FFFFFF" />
<rect x="570" y="510" width="30" height="30" fill="#FFFFFF" />
<rect x="600" y="510" width="30" height="30" fill="#FFFFFF" />
<rect x="630" y="510" width="30" height="30" fill="#FFFFFF" />
<rect x="660" y="510" width="30" height="30" fill="#BFE5EC" />
<rect x="690" y="510" width="30" height="30" fill="#34737B" />
<rect x="720" y="510" width="30" height="30" fill="#34737B" />
<rect x="120" y="540" width="30" height="30" fill="#34737B" />
<rect x="150" y="540" width="30" height="30" fill="#34737B" />
<rect x="180" y="540" width="30" height="30" fill="#FFFFFF" />
<rect x="210" y="540" width="30" height="30" fill="#FFFFFF" />
<rect x="240" y="540" width="30" height="30" fill="#FFFFFF" />
<rect x="270" y="540" width="30" height="30" fill="#FFFFFF" />
<rect x="300" y="540" width="30" height="30" fill="#FFFFFF" />
<rect x="330" y="540" width="30" height="30" fill="#FFFFFF" />
<rect x="360" y="540" width="30" height="30" fill="#FFFFFF" />
<rect x="390" y="540" width="30" height="30" fill="#FFFFFF" />
<rect x="420" y="540" width="30" height="30" fill="#FFFFFF" />
<rect x="450" y="540" width="30" height="30" fill="#FFFFFF" />
<rect x="480" y="540" width="30" height="30" fill="#FFFFFF" />
<rect x="510" y="540" width="30" height="30" fill="#FFFFFF" />
<rect x="540" y="540" width="30" height="30" fill="#FFFFFF" />
<rect x="570" y="540" width="30" height="30" fill="#FFFFFF" />
<rect x="600" y="540" width="30" height="30" fill="#FFFFFF" />
<rect x="630" y="540" width="30" height="30" fill="#FFFFFF" />
<rect x="660" y="540" width="30" height="30" fill="#BFE5EC" />
<rect x="690" y="540" width="30" height="30" fill="#34737B" />
<rect x="720" y="540" width="30" height="30" fill="#34737B" />
<rect x="60" y="570" width="30" height="30" fill="#34737B" />
<rect x="90" y="570" width="30" height="30" fill="#34737B" />
<rect x="120" y="570" width="30" height="30" fill="#BFE5EC" />
<rect x="150" y="570" width="30" height="30" fill="#BFE5EC" />
<rect x="180" y="570" width="30" height="30" fill="#FFFFFF" />
<rect x="210" y="570" width="30" height="30" fill="#FFFFFF" />
<rect x="240" y="570" width="30" height="30" fill="#FFFFFF" />
<rect x="270" y="570" width="30" height="30" fill="#FFFFFF" />
<rect x="300" y="570" width="30" height="30" fill="#FFFFFF" />
<rect x="330" y="570" width="30" height="30" fill="#FFFFFF" />
<rect x="360" y="570" width="30" height="30" fill="#FFFFFF" />
<rect x="390" y="570" width="30" height="30" fill="#FFFFFF" />
<rect x="420" y="570" width="30" height="30" fill="#FFFFFF" />
<rect x="450" y="570" width="30" height="30" fill="#FFFFFF" />
<rect x="480" y="570" width="30" height="30" fill="#FFFFFF" />
<rect x="510" y="570" width="30" height="30" fill="#FFFFFF" />
<rect x="540" y="570" width="30" height="30" fill="#FFFFFF" />
<rect x="570" y="570" width="30" height="30" fill="#FFFFFF" />
<rect x="600" y="570" width="30" height="30" fill="#FFFFFF" />
<rect x="630" y="570" width="30" height="30" fill="#FFFFFF" />
<rect x="660" y="570" width="30" height="30" fill="#FFFFFF" />
<rect x="690" y="570" width="30" height="30" fill="#FFFFFF" />
<rect x="720" y="570" width="30" height="30" fill="#FFFFFF" />
<rect x="750" y="570" width="30" height="30" fill="#34737B" />
<rect x="780" y="570" width="30" height="30" fill="#34737B" />
<rect x="60" y="600" width="30" height="30" fill="#34737B" />
<rect x="90" y="600" width="30" height="30" fill="#34737B" />
<rect x="120" y="600" width="30" height="30" fill="#BFE5EC" />
<rect x="150" y="600" width="30" height="30" fill="#BFE5EC" />
<rect x="180" y="600" width="30" height="30" fill="#FFFFFF" />
<rect x="210" y="600" width="30" height="30" fill="#FFFFFF" />
<rect x="240" y="600" width="30" height="30" fill="#FFFFFF" />
<rect x="270" y="600" width="30" height="30" fill="#FFFFFF" />
<rect x="300" y="600" width="30" height="30" fill="#FFFFFF" />
<rect x="330" y="600" width="30" height="30" fill="#FFFFFF" />
<rect x="360" y="600" width="30" height="30" fill="#FFFFFF" />
<rect x="390" y="600" width="30" height="30" fill="#FFFFFF" />
<rect x="420" y="600" width="30" height="30" fill="#FFFFFF" />
<rect x="450" y="600" width="30" height="30" fill="#FFFFFF" />
<rect x="480" y="600" width="30" height="30" fill="#FFFFFF" />
<rect x="510" y="600" width="30" height="30" fill="#FFFFFF" />
<rect x="540" y="600" width="30" height="30" fill="#FFFFFF" />
<rect x="570" y="600" width="30" height="30" fill="#FFFFFF" />
<rect x="600" y="600" width="30" height="30" fill="#FFFFFF" />
<rect x="630" y="600" width="30" height="30" fill="#FFFFFF" />
<rect x="660" y="600" width="30" height="30" fill="#FFFFFF" />
<rect x="690" y="600" width="30" height="30" fill="#FFFFFF" />
<rect x="720" y="600" width="30" height="30" fill="#FFFFFF" />
<rect x="750" y="600" width="30" height="30" fill="#34737B" />
<rect x="780" y="600" width="30" height="30" fill="#34737B" />
<rect x="60" y="630" width="30" height="30" fill="#34737B" />
<rect x="90" y="630" width="30" height="30" fill="#34737B" />
<rect x="120" y="630" width="30" height="30" fill="#BFE5EC" />
<rect x="150" y="630" width="30" height="30" fill="#BFE5EC" />
<rect x="180" y="630" width="30" height="30" fill="#FFFFFF" />
<rect x="210" y="630" width="30" height="30" fill="#FFFFFF" />
<rect x="240" y="630" width="30" height="30" fill="#FFFFFF" />
<rect x="270" y="630" width="30" height="30" fill="#FFFFFF" />
<rect x="300" y="630" width="30" height="30" fill="#FFFFFF" />
<rect x="330" y="630" width="30" height="30" fill="#FFFFFF" />
<rect x="360" y="630" width="30" height="30" fill="#FFFFFF" />
<rect x="390" y="630" width="30" height="30" fill="#FFFFFF" />
<rect x="420" y="630" width="30" height="30" fill="#FFFFFF" />
<rect x="450" y="630" width="30" height="30" fill="#FFFFFF" />
<rect x="480" y="630" width="30" height="30" fill="#FFFFFF" />
<rect x="510" y="630" width="30" height="30" fill="#FFFFFF" />
<rect x="540" y="630" width="30" height="30" fill="#FFFFFF" />
<rect x="570" y="630" width="30" height="30" fill="#FFFFFF" />
<rect x="600" y="630" width="30" height="30" fill="#FFFFFF" />
<rect x="630" y="630" width="30" height="30" fill="#FFFFFF" />
<rect x="660" y="630" width="30" height="30" fill="#FFFFFF" />
<rect x="690" y="630" width="30" height="30" fill="#FFFFFF" />
<rect x="720" y="630" width="30" height="30" fill="#FFFFFF" />
<rect x="750" y="630" width="30" height="30" fill="#34737B" />
<rect x="780" y="630" width="30" height="30" fill="#34737B" />
<rect x="60" y="660" width="30" height="30" fill="#34737B" />
<rect x="90" y="660" width="30" height="30" fill="#34737B" />
<rect x="120" y="660" width="30" height="30" fill="#BFE5EC" />
<rect x="150" y="660" width="30" height="30" fill="#BFE5EC" />
<rect x="180" y="660" width="30" height="30" fill="#FFFFFF" />
<rect x="210" y="660" width="30" height="30" fill="#FFFFFF" />
<rect x="240" y="660" width="30" height="30" fill="#FFFFFF" />
<rect x="270" y="660" width="30" height="30" fill="#FFFFFF" />
<rect x="300" y="660" width="30" height="30" fill="#FFFFFF" />
<rect x="330" y="660" width="30" height="30" fill="#FFFFFF" />
<rect x="360" y="660" width="30" height="30" fill="#FFFFFF" />
<rect x="390" y="660" width="30" height="30" fill="#FFFFFF" />
<rect x="420" y="660" width="30" height="30" fill="#FFFFFF" />
<rect x="450" y="660" width="30" height="30" fill="#FFFFFF" />
<rect x="480" y="660" width="30" height="30" fill="#FFFFFF" />
<rect x="510" y="660" width="30" height="30" fill="#FFFFFF" />
<rect x="540" y="660" width="30" height="30" fill="#FFFFFF" />
<rect x="570" y="660" width="30" height="30" fill="#FFFFFF" />
<rect x="600" y="660" width="30" height="30" fill="#FFFFFF" />
<rect x="630" y="660" width="30" height="30" fill="#FFFFFF" />
<rect x="660" y="660" width="30" height="30" fill="#FFFFFF" />
<rect x="690" y="660" width="30" height="30" fill="#FFFFFF" />
<rect x="720" y="660" width="30" height="30" fill="#FFFFFF" />
<rect x="750" y="660" width="30" height="30" fill="#34737B" />
<rect x="780" y="660" width="30" height="30" fill="#34737B" />
<rect x="60" y="690" width="30" height="30" fill="#34737B" />
<rect x="90" y="690" width="30" height="30" fill="#34737B" />
<rect x="120" y="690" width="30" height="30" fill="#BFE5EC" />
<rect x="150" y="690" width="30" height="30" fill="#BFE5EC" />
<rect x="180" y="690" width="30" height="30" fill="#FFFFFF" />
<rect x="210" y="690" width="30" height="30" fill="#FFFFFF" />
<rect x="240" y="690" width="30" height="30" fill="#FFFFFF" />
<rect x="270" y="690" width="30" height="30" fill="#FFFFFF" />
<rect x="300" y="690" width="30" height="30" fill="#FFFFFF" />
<rect x="330" y="690" width="30" height="30" fill="#FFFFFF" />
<rect x="360" y="690" width="30" height="30" fill="#FFFFFF" />
<rect x="390" y="690" width="30" height="30" fill="#FFFFFF" />
<rect x="420" y="690" width="30" height="30" fill="#FFFFFF" />
<rect x="450" y="690" width="30" height="30" fill="#FFFFFF" />
<rect x="480" y="690" width="30" height="30" fill="#FFFFFF" />
<rect x="510" y="690" width="30" height="30" fill="#FFFFFF" />
<rect x="540" y="690" width="30" height="30" fill="#FFFFFF" />
<rect x="570" y="690" width="30" height="30" fill="#FFFFFF" />
<rect x="600" y="690" width="30" height="30" fill="#FFFFFF" />
<rect x="630" y="690" width="30" height="30" fill="#FFFFFF" />
<rect x="660" y="690" width="30" height="30" fill="#FFFFFF" />
<rect x="690" y="690" width="30" height="30" fill="#FFFFFF" />
<rect x="720" y="690" width="30" height="30" fill="#FFFFFF" />
<rect x="750" y="690" width="30" height="30" fill="#34737B" />
<rect x="780" y="690" width="30" height="30" fill="#34737B" />
<rect x="60" y="720" width="30" height="30" fill="#34737B" />
<rect x="90" y="720" width="30" height="30" fill="#34737B" />
<rect x="120" y="720" width="30" height="30" fill="#BFE5EC" />
<rect x="150" y="720" width="30" height="30" fill="#BFE5EC" />
<rect x="180" y="720" width="30" height="30" fill="#FFFFFF" />
<rect x="210" y="720" width="30" height="30" fill="#FFFFFF" />
<rect x="240" y="720" width="30" height="30" fill="#FFFFFF" />
<rect x="270" y="720" width="30" height="30" fill="#FFFFFF" />
<rect x="300" y="720" width="30" height="30" fill="#FFFFFF" />
<rect x="330" y="720" width="30" height="30" fill="#FFFFFF" />
<rect x="360" y="720" width="30" height="30" fill="#FFFFFF" />
<rect x="390" y="720" width="30" height="30" fill="#FFFFFF" />
<rect x="420" y="720" width="30" height="30" fill="#FFFFFF" />
<rect x="450" y="720" width="30" height="30" fill="#FFFFFF" />
<rect x="480" y="720" width="30" height="30" fill="#FFFFFF" />
<rect x="510" y="720" width="30" height="30" fill="#FFFFFF" />
<rect x="540" y="720" width="30" height="30" fill="#FFFFFF" />
<rect x="570" y="720" width="30" height="30" fill="#FFFFFF" />
<rect x="600" y="720" width="30" height="30" fill="#FFFFFF" />
<rect x="630" y="720" width="30" height="30" fill="#FFFFFF" />
<rect x="660" y="720" width="30" height="30" fill="#FFFFFF" />
<rect x="690" y="720" width="30" height="30" fill="#FFFFFF" />
<rect x="720" y="720" width="30" height="30" fill="#FFFFFF" />
<rect x="750" y="720" width="30" height="30" fill="#34737B" />
<rect x="780" y="720" width="30" height="30" fill="#34737B" />
<rect x="120" y="750" width="30" height="30" fill="#34737B" />
<rect x="150" y="750" width="30" height="30" fill="#34737B" />
<rect x="180" y="750" width="30" height="30" fill="#BFE5EC" />
<rect x="210" y="750" width="30" height="30" fill="#BFE5EC" />
<rect x="240" y="750" width="30" height="30" fill="#BFE5EC" />
<rect x="270" y="750" width="30" height="30" fill="#BFE5EC" />
<rect x="300" y="750" width="30" height="30" fill="#FFFFFF" />
<rect x="330" y="750" width="30" height="30" fill="#FFFFFF" />
<rect x="360" y="750" width="30" height="30" fill="#FFFFFF" />
<rect x="390" y="750" width="30" height="30" fill="#FFFFFF" />
<rect x="420" y="750" width="30" height="30" fill="#FFFFFF" />
<rect x="450" y="750" width="30" height="30" fill="#FFFFFF" />
<rect x="480" y="750" width="30" height="30" fill="#FFFFFF" />
<rect x="510" y="750" width="30" height="30" fill="#FFFFFF" />
<rect x="540" y="750" width="30" height="30" fill="#FFFFFF" />
<rect x="570" y="750" width="30" height="30" fill="#FFFFFF" />
<rect x="600" y="750" width="30" height="30" fill="#FFFFFF" />
<rect x="630" y="750" width="30" height="30" fill="#FFFFFF" />
<rect x="660" y="750" width="30" height="30" fill="#FFFFFF" />
<rect x="690" y="750" width="30" height="30" fill="#34737B" />
<rect x="720" y="750" width="30" height="30" fill="#34737B" />
<rect x="120" y="780" width="30" height="30" fill="#34737B" />
<rect x="150" y="780" width="30" height="30" fill="#34737B" />
<rect x="180" y="780" width="30" height="30" fill="#BFE5EC" />
<rect x="210" y="780" width="30" height="30" fill="#BFE5EC" />
<rect x="240" y="780" width="30" height="30" fill="#BFE5EC" />
<rect x="270" y="780" width="30" height="30" fill="#BFE5EC" />
<rect x="300" y="780" width="30" height="30" fill="#FFFFFF" />
<rect x="330" y="780" width="30" height="30" fill="#FFFFFF" />
<rect x="360" y="780" width="30" height="30" fill="#FFFFFF" />
<rect x="390" y="780" width="30" height="30" fill="#FFFFFF" />
<rect x="420" y="780" width="30" height="30" fill="#FFFFFF" />
<rect x="450" y="780" width="30" height="30" fill="#FFFFFF" />
<rect x="480" y="780" width="30" height="30" fill="#FFFFFF" />
<rect x="510" y="780" width="30" height="30" fill="#FFFFFF" />
<rect x="540" y="780" width="30" height="30" fill="#FFFFFF" />
<rect x="570" y="780" width="30" height="30" fill="#FFFFFF" />
<rect x="600" y="780" width="30" height="30" fill="#FFFFFF" />
<rect x="630" y="780" width="30" height="30" fill="#FFFFFF" />
<rect x="660" y="780" width="30" height="30" fill="#FFFFFF" />
<rect x="690" y="780" width="30" height="30" fill="#34737B" />
<rect x="720" y="780" width="30" height="30" fill="#34737B" />
<rect x="180" y="810" width="30" height="30" fill="#34737B" />
<rect x="210" y="810" width="30" height="30" fill="#34737B" />
<rect x="240" y="810" width="30" height="30" fill="#34737B" />
<rect x="270" y="810" width="30" height="30" fill="#34737B" />
<rect x="300" y="810" width="30" height="30" fill="#BFE5EC" />
<rect x="330" y="810" width="30" height="30" fill="#BFE5EC" />
<rect x="360" y="810" width="30" height="30" fill="#BFE5EC" />
<rect x="390" y="810" width="30" height="30" fill="#BFE5EC" />
<rect x="420" y="810" width="30" height="30" fill="#BFE5EC" />
<rect x="450" y="810" width="30" height="30" fill="#FFFFFF" />
<rect x="480" y="810" width="30" height="30" fill="#FFFFFF" />
<rect x="510" y="810" width="30" height="30" fill="#FFFFFF" />
<rect x="540" y="810" width="30" height="30" fill="#BFE5EC" />
<rect x="570" y="810" width="30" height="30" fill="#BFE5EC" />
<rect x="600" y="810" width="30" height="30" fill="#BFE5EC" />
<rect x="630" y="810" width="30" height="30" fill="#34737B" />
<rect x="660" y="810" width="30" height="30" fill="#34737B" />
<rect x="180" y="840" width="30" height="30" fill="#34737B" />
<rect x="210" y="840" width="30" height="30" fill="#34737B" />
<rect x="240" y="840" width="30" height="30" fill="#34737B" />
<rect x="270" y="840" width="30" height="30" fill="#34737B" />
<rect x="300" y="840" width="30" height="30" fill="#BFE5EC" />
<rect x="330" y="840" width="30" height="30" fill="#BFE5EC" />
<rect x="360" y="840" width="30" height="30" fill="#BFE5EC" />
<rect x="390" y="840" width="30" height="30" fill="#BFE5EC" />
<rect x="420" y="840" width="30" height="30" fill="#BFE5EC" />
<rect x="450" y="840" width="30" height="30" fill="#FFFFFF" />
<rect x="480" y="840" width="30" height="30" fill="#FFFFFF" />
<rect x="510" y="840" width="30" height="30" fill="#FFFFFF" />
<rect x="540" y="840" width="30" height="30" fill="#BFE5EC" />
<rect x="570" y="840" width="30" height="30" fill="#BFE5EC" />
<rect x="600" y="840" width="30" height="30" fill="#BFE5EC" />
<rect x="630" y="840" width="30" height="30" fill="#34737B" />
<rect x="660" y="840" width="30" height="30" fill="#34737B" />
<rect x="300" y="870" width="30" height="30" fill="#34737B" />
<rect x="330" y="870" width="30" height="30" fill="#34737B" />
<rect x="360" y="870" width="30" height="30" fill="#34737B" />
<rect x="390" y="870" width="30" height="30" fill="#34737B" />
<rect x="420" y="870" width="30" height="30" fill="#34737B" />
<rect x="450" y="870" width="30" height="30" fill="#BFE5EC" />
<rect x="480" y="870" width="30" height="30" fill="#BFE5EC" />
<rect x="510" y="870" width="30" height="30" fill="#BFE5EC" />
<rect x="540" y="870" width="30" height="30" fill="#BFE5EC" />
<rect x="570" y="870" width="30" height="30" fill="#34737B" />
<rect x="600" y="870" width="30" height="30" fill="#34737B" />
<rect x="300" y="900" width="30" height="30" fill="#34737B" />
<rect x="330" y="900" width="30" height="30" fill="#34737B" />
<rect x="360" y="900" width="30" height="30" fill="#34737B" />
<rect x="390" y="900" width="30" height="30" fill="#34737B" />
<rect x="420" y="900" width="30" height="30" fill="#34737B" />
<rect x="450" y="900" width="30" height="30" fill="#BFE5EC" />
<rect x="480" y="900" width="30" height="30" fill="#BFE5EC" />
<rect x="510" y="900" width="30" height="30" fill="#BFE5EC" />
<rect x="540" y="900" width="30" height="30" fill="#BFE5EC" />
<rect x="570" y="900" width="30" height="30" fill="#34737B" />
<rect x="600" y="900" width="30" height="30" fill="#34737B" />
<rect x="450" y="930" width="30" height="30" fill="#34737B" />
<rect x="480" y="930" width="30" height="30" fill="#34737B" />
<rect x="510" y="930" width="30" height="30" fill="#34737B" />
<rect x="540" y="930" width="30" height="30" fill="#34737B" />
<rect x="450" y="960" width="30" height="30" fill="#34737B" />
<rect x="480" y="960" width="30" height="30" fill="#34737B" />
<rect x="510" y="960" width="30" height="30" fill="#34737B" />
<rect x="540" y="960" width="30" height="30" fill="#34737B" />
</svg>