<?xml version="1.0" encoding="UTF-8" ?>
<svg version="1.1" width="1050" height="1050" xmlns="http://www.w3.org/2000/svg">
<rect x="420" y="300" width="30" height="30" fill="#AAE9FF" />
<rect x="450" y="300" width="30" height="30" fill="#AAE9FF" />
<rect x="480" y="300" width="30" height="30" fill="#AAE9FF" />
<rect x="510" y="300" width="30" height="30" fill="#AAE9FF" />
<rect x="540" y="300" width="30" height="30" fill="#AAE9FF" />
<rect x="570" y="300" width="30" height="30" fill="#AAE9FF" />
<rect x="600" y="300" width="30" height="30" fill="#AAE9FF" />
<rect x="330" y="330" width="30" height="30" fill="#E2A975" opacity="0.172549" />
<rect x="360" y="330" width="30" height="30" fill="#E2A975" opacity="0.172549" />
<rect x="390" y="330" width="30" height="30" fill="#AAE9FF" />
<rect x="420" y="330" width="30" height="30" fill="#AAE9FF" />
<rect x="450" y="330" width="30" height="30" fill="#AAE9FF" />
<rect x="480" y="330" width="30" height="30" fill="#AAE9FF" />
<rect x="510" y="330" width="30" height="30" fill="#AAE9FF" />
<rect x="540" y="330" width="30" height="30" fill="#AAE9FF" />
<rect x="570" y="330" width="30" height="30" fill="#AAE9FF" />
<rect x="600" y="330" width="30" height="30" fill="#AAE9FF" />
<rect x="630" y="330" width="30" height="30" fill="#AAE9FF" />
<rect x="330" y="360" width="30" height="30" fill="#66C1E0" />
<rect x="360" y="360" width="30" height="30" fill="#66C1E0" />
<rect x="390" y="360" width="30" height="30" fill="#AAE9FF" />
<rect x="420" y="360" width="30" height="30" fill="#AAE9FF" />
<rect x="450" y="360" width="30" height="30" fill="#AAE9FF" />
<rect x="480" y="360" width="30" height="30" fill="#AAE9FF" />
<rect x="510" y="360" width="30" height="30" fill="#AAE9FF" />
<rect x="540" y="360" width="30" height="30" fill="#AAE9FF" />
<rect x="570" y="360" width="30" height="30" fill="#AAE9FF" />
<rect x="600" y="360" width="30" height="30" fill="#AAE9FF" />
<rect x="630" y="360" width="30" height="30" fill="#AAE9FF" />
<rect x="660" y="360" width="30" height="30" fill="#E0F7FF" />
<rect x="690" y="360" width="30" height="30" fill="#E0F7FF" />
<rect x="300" y="390" width="30" height="30" fill="#66C1E0" />
<rect x="330" y="390" width="30" height="30" fill="#66C1E0" />
<rect x="360" y="390" width="30" height="30" fill="#66C1E0" />
<rect x="390" y="390" width="30" height="30" fill="#AAE9FF" />
<rect x="420" y="390" width="30" height="30" fill="#AAE9FF" />
<rect x="450" y="390" width="30" height="30" fill="#AAE9FF" />
<rect x="480" y="390" width="30" height="30" fill="#AAE9FF" />
<rect x="510" y="390" width="30" height="30" fill="#AAE9FF" />
<rect x="540" y="390" width="30" height="30" fill="#AAE9FF" />
<rect x="570" y="390" width="30" height="30" fill="#AAE9FF" />
<rect x="600" y="390" width="30" height="30" fill="#AAE9FF" />
<rect x="630" y="390" width="30" height="30" fill="#AAE9FF" />
<rect x="660" y="390" width="30" height="30" fill="#E0F7FF" />
<rect x="690" y="390" width="30" height="30" fill="#E0F7FF" />
<rect x="720" y="390" width="30" height="30" fill="#E0F7FF" />
<rect x="270" y="420" width="30" height="30" fill="#66C1E0" />
<rect x="300" y="420" width="30" height="30" fill="#66C1E0" />
<rect x="330" y="420" width="30" height="30" fill="#66C1E0" />
<rect x="360" y="420" width="30" height="30" fill="#66C1E0" />
<rect x="390" y="420" width="30" height="30" fill="#66C1E0" />
<rect x="420" y="420" width="30" height="30" fill="#AAE9FF" />
<rect x="450" y="420" width="30" height="30" fill="#AAE9FF" />
<rect x="480" y="420" width="30" height="30" fill="#AAE9FF" />
<rect x="510" y="420" width="30" height="30" fill="#AAE9FF" />
<rect x="540" y="420" width="30" height="30" fill="#AAE9FF" />
<rect x="570" y="420" width="30" height="30" fill="#AAE9FF" />
<rect x="600" y="420" width="30" height="30" fill="#AAE9FF" />
<rect x="630" y="420" width="30" height="30" fill="#E0F7FF" />
<rect x="660" y="420" width="30" height="30" fill="#E0F7FF" />
<rect x="690" y="420" width="30" height="30" fill="#E0F7FF" />
<rect x="720" y="420" width="30" height="30" fill="#E0F7FF" />
<rect x="750" y="420" width="30" height="30" fill="#E0F7FF" />
<rect x="240" y="450" width="30" height="30" fill="#66C1E0" />
<rect x="270" y="450" width="30" height="30" fill="#66C1E0" />
<rect x="300" y="450" width="30" height="30" fill="#66C1E0" />
<rect x="330" y="450" width="30" height="30" fill="#66C1E0" />
<rect x="360" y="450" width="30" height="30" fill="#66C1E0" />
<rect x="390" y="450" width="30" height="30" fill="#66C1E0" />
<rect x="420" y="450" width="30" height="30" fill="#AAE9FF" />
<rect x="450" y="450" width="30" height="30" fill="#AAE9FF" />
<rect x="480" y="450" width="30" height="30" fill="#AAE9FF" />
<rect x="510" y="450" width="30" height="30" fill="#AAE9FF" />
<rect x="540" y="450" width="30" height="30" fill="#AAE9FF" />
<rect x="570" y="450" width="30" height="30" fill="#AAE9FF" />
<rect x="600" y="450" width="30" height="30" fill="#AAE9FF" />
<rect x="630" y="450" width="30" height="30" fill="#E0F7FF" />
<rect x="660" y="450" width="30" height="30" fill="#E0F7FF" />
<rect x="690" y="450" width="30" height="30" fill="#E0F7FF" />
<rect x="720" y="450" width="30" height="30" fill="#E0F7FF" />
<rect x="750" y="450" width="30" height="30" fill="#E0F7FF" />
<rect x="780" y="450" width="30" height="30" fill="#E0F7FF" />
<rect x="810" y="450" width="30" height="30" fill="#F4DBB3" opacity="0.086275" />
<rect x="210" y="480" width="30" height="30" fill="#66C1E0" />
<rect x="240" y="480" width="30" height="30" fill="#66C1E0" />
<rect x="270" y="480" width="30" height="30" fill="#66C1E0" />
<rect x="300" y="480" width="30" height="30" fill="#66C1E0" />
<rect x="330" y="480" width="30" height="30" fill="#66C1E0" />
<rect x="360" y="480" width="30" height="30" fill="#66C1E0" />
<rect x="390" y="480" width="30" height="30" fill="#66C1E0" />
<rect x="420" y="480" width="30" height="30" fill="#66C1E0" />
<rect x="450" y="480" width="30" height="30" fill="#AAE9FF" />
<rect x="480" y="480" width="30" height="30" fill="#AAE9FF" />
<rect x="510" y="480" width="30" height="30" fill="#AAE9FF" />
<rect x="540" y="480" width="30" height="30" fill="#AAE9FF" />
<rect x="570" y="480" width="30" height="30" fill="#AAE9FF" />
<rect x="600" y="480" width="30" height="30" fill="#E0F7FF" />
<rect x="630" y="480" width="30" height="30" fill="#E0F7FF" />
<rect x="660" y="480" width="30" height="30" fill="#E0F7FF" />
<rect x="690" y="480" width="30" height="30" fill="#E0F7FF" />
<rect x="720" y="480" width="30" height="30" fill="#E0F7FF" />
<rect x="750" y="480" width="30" height="30" fill="#E0F7FF" />
<rect x="780" y="480" width="30" height="30" fill="#E0F7FF" />
<rect x="810" y="480" width="30" height="30" fill="#E0F7FF" />
<rect x="180" y="510" width="30" height="30" fill="#66C1E0" />
<rect x="210" y="510" width="30" height="30" fill="#66C1E0" />
<rect x="240" y="510" width="30" height="30" fill="#66C1E0" />
<rect x="270" y="510" width="30" height="30" fill="#66C1E0" />
<rect x="300" y="510" width="30" height="30" fill="#66C1E0" />
<rect x="330" y="510" width="30" height="30" fill="#66C1E0" />
<rect x="360" y="510" width="30" height="30" fill="#66C1E0" />
<rect x="390" y="510" width="30" height="30" fill="#66C1E0" />
<rect x="420" y="510" width="30" height="30" fill="#66C1E0" />
<rect x="450" y="510" width="30" height="30" fill="#66C1E0" />
<rect x="480" y="510" width="30" height="30" fill="#AAE9FF" />
<rect x="510" y="510" width="30" height="30" fill="#AAE9FF" />
<rect x="540" y="510" width="30" height="30" fill="#AAE9FF" />
<rect x="570" y="510" width="30" height="30" fill="#E0F7FF" />
<rect x="600" y="510" width="30" height="30" fill="#E0F7FF" />
<rect x="630" y="510" width="30" height="30" fill="#E0F7FF" />
<rect x="660" y="510" width="30" height="30" fill="#E0F7FF" />
<rect x="690" y="510" width="30" height="30" fill="#E0F7FF" />
<rect x="720" y="510" width="30" height="30" fill="#E0F7FF" />
<rect x="750" y="510" width="30" height="30" fill="#E0F7FF" />
<rect x="780" y="510" width="30" height="30" fill="#E0F7FF" />
<rect x="810" y="510" width="30" height="30" fill="#E0F7FF" />
<rect x="840" y="510" width="30" height="30" fill="#E0F7FF" />
<rect x="180" y="540" width="30" height="30" fill="#66C1E0" />
<rect x="210" y="540" width="30" height="30" fill="#66C1E0" />
<rect x="240" y="540" width="30" height="30" fill="#66C1E0" />
<rect x="270" y="540" width="30" height="30" fill="#66C1E0" />
<rect x="300" y="540" width="30" height="30" fill="#66C1E0" />
<rect x="330" y="540" width="30" height="30" fill="#66C1E0" />
<rect x="360" y="540" width="30" height="30" fill="#66C1E0" />
<rect x="390" y="540" width="30" height="30" fill="#66C1E0" />
<rect x="420" y="540" width="30" height="30" fill="#66C1E0" />
<rect x="450" y="540" width="30" height="30" fill="#E0F7FF" />
<rect x="480" y="540" width="30" height="30" fill="#E0F7FF" />
<rect x="510" y="540" width="30" height="30" fill="#327188" />
<rect x="540" y="540" width="30" height="30" fill="#66C1E0" />
<rect x="570" y="540" width="30" height="30" fill="#66C1E0" />
<rect x="600" y="540" width="30" height="30" fill="#E0F7FF" />
<rect x="630" y="540" width="30" height="30" fill="#E0F7FF" />
<rect x="660" y="540" width="30" height="30" fill="#E0F7FF" />
<rect x="690" y="540" width="30" height="30" fill="#E0F7FF" />
<rect x="720" y="540" width="30" height="30" fill="#E0F7FF" />
<rect x="750" y="540" width="30" height="30" fill="#E0F7FF" />
<rect x="780" y="540" width="30" height="30" fill="#E0F7FF" />
<rect x="810" y="540" width="30" height="30" fill="#E0F7FF" />
<rect x="840" y="540" width="30" height="30" fill="#E0F7FF" />
<rect x="180" y="570" width="30" height="30" fill="#66C1E0" />
<rect x="210" y="570" width="30" height="30" fill="#66C1E0" />
<rect x="240" y="570" width="30" height="30" fill="#66C1E0" />
<rect x="270" y="570" width="30" height="30" fill="#66C1E0" />
<rect x="300" y="570" width="30" height="30" fill="#66C1E0" />
<rect x="330" y="570" width="30" height="30" fill="#66C1E0" />
<rect x="360" y="570" width="30" height="30" fill="#66C1E0" />
<rect x="390" y="570" width="30" height="30" fill="#66C1E0" />
<rect x="420" y="570" width="30" height="30" fill="#E0F7FF" />
<rect x="450" y="570" width="30" height="30" fill="#E0F7FF" />
<rect x="480" y="570" width="30" height="30" fill="#234754" />
<rect x="510" y="570" width="30" height="30" fill="#234754" />
<rect x="540" y="570" width="30" height="30" fill="#234754" />
<rect x="570" y="570" width="30" height="30" fill="#66C1E0" />
<rect x="600" y="570" width="30" height="30" fill="#66C1E0" />
<rect x="630" y="570" width="30" height="30" fill="#E0F7FF" />
<rect x="660" y="570" width="30" height="30" fill="#E0F7FF" />
<rect x="690" y="570" width="30" height="30" fill="#E0F7FF" />
<rect x="720" y="570" width="30" height="30" fill="#E0F7FF" />
<rect x="750" y="570" width="30" height="30" fill="#E0F7FF" />
<rect x="780" y="570" width="30" height="30" fill="#E0F7FF" />
<rect x="810" y="570" width="30" height="30" fill="#E0F7FF" />
<rect x="840" y="570" width="30" height="30" fill="#E0F7FF" />
<rect x="180" y="600" width="30" height="30" fill="#66C1E0" />
<rect x="210" y="600" width="30" height="30" fill="#66C1E0" />
<rect x="240" y="600" width="30" height="30" fill="#66C1E0" />
<rect x="270" y="600" width="30" height="30" fill="#66C1E0" />
<rect x="300" y="600" width="30" height="30" fill="#66C1E0" />
<rect x="330" y="600" width="30" height="30" fill="#66C1E0" />
<rect x="360" y="600" width="30" height="30" fill="#66C1E0" />
<rect x="390" y="600" width="30" height="30" fill="#E0F7FF" />
<rect x="420" y="600" width="30" height="30" fill="#E0F7FF" />
<rect x="450" y="600" width="30" height="30" fill="#234754" />
<rect x="480" y="600" width="30" height="30" fill="#234754" />
<rect x="510" y="600" width="30" height="30" fill="#234754" />
<rect x="540" y="600" width="30" height="30" fill="#234754" />
<rect x="570" y="600" width="30" height="30" fill="#234754" />
<rect x="600" y="600" width="30" height="30" fill="#66C1E0" />
<rect x="630" y="600" width="30" height="30" fill="#66C1E0" />
<rect x="660" y="600" width="30" height="30" fill="#E0F7FF" />
<rect x="690" y="600" width="30" height="30" fill="#E0F7FF" />
<rect x="720" y="600" width="30" height="30" fill="#E0F7FF" />
<rect x="750" y="600" width="30" height="30" fill="#E0F7FF" />
<rect x="780" y="600" width="30" height="30" fill="#E0F7FF" />
<rect x="810" y="600" width="30" height="30" fill="#E0F7FF" />
<rect x="840" y="600" width="30" height="30" fill="#E0F7FF" />
<rect x="180" y="630" width="30" height="30" fill="#66C1E0" />
<rect x="210" y="630" width="30" height="30" fill="#66C1E0" />
<rect x="240" y="630" width="30" height="30" fill="#66C1E0" />
<rect x="270" y="630" width="30" height="30" fill="#66C1E0" />
<rect x="300" y="630" width="30" height="30" fill="#66C1E0" />
<rect x="330" y="630" width="30" height="30" fill="#66C1E0" />
<rect x="360" y="630" width="30" height="30" fill="#66C1E0" />
<rect x="390" y="630" width="30" height="30" fill="#E0F7FF" />
<rect x="420" y="630" width="30" height="30" fill="#234754" />
<rect x="450" y="630" width="30" height="30" fill="#234754" />
<rect x="480" y="630" width="30" height="30" fill="#366272" />
<rect x="510" y="630" width="30" height="30" fill="#366272" />
<rect x="540" y="630" width="30" height="30" fill="#366272" />
<rect x="570" y="630" width="30" height="30" fill="#234754" />
<rect x="600" y="630" width="30" height="30" fill="#234754" />
<rect x="630" y="630" width="30" height="30" fill="#66C1E0" />
<rect x="660" y="630" width="30" height="30" fill="#E0F7FF" />
<rect x="690" y="630" width="30" height="30" fill="#E0F7FF" />
<rect x="720" y="630" width="30" height="30" fill="#E0F7FF" />
<rect x="750" y="630" width="30" height="30" fill="#E0F7FF" />
<rect x="780" y="630" width="30" height="30" fill="#E0F7FF" />
<rect x="810" y="630" width="30" height="30" fill="#E0F7FF" />
<rect x="840" y="630" width="30" height="30" fill="#E0F7FF" />
<rect x="150" y="660" width="30" height="30" fill="#C38C66" opacity="0.086275" />
<rect x="180" y="660" width="30" height="30" fill="#66C1E0" />
<rect x="210" y="660" width="30" height="30" fill="#66C1E0" />
<rect x="240" y="660" width="30" height="30" fill="#66C1E0" />
<rect x="270" y="660" width="30" height="30" fill="#66C1E0" />
<rect x="300" y="660" width="30" height="30" fill="#66C1E0" />
<rect x="330" y="660" width="30" height="30" fill="#66C1E0" />
<rect x="360" y="660" width="30" height="30" fill="#66C1E0" />
<rect x="390" y="660" width="30" height="30" fill="#E0F7FF" />
<rect x="420" y="660" width="30" height="30" fill="#234754" />
<rect x="450" y="660" width="30" height="30" fill="#366272" />
<rect x="480" y="660" width="30" height="30" fill="#366272" />
<rect x="510" y="660" width="30" height="30" fill="#366272" />
<rect x="540" y="660" width="30" height="30" fill="#366272" />
<rect x="570" y="660" width="30" height="30" fill="#366272" />
<rect x="600" y="660" width="30" height="30" fill="#234754" />
<rect x="630" y="660" width="30" height="30" fill="#66C1E0" />
<rect x="660" y="660" width="30" height="30" fill="#E0F7FF" />
<rect x="690" y="660" width="30" height="30" fill="#E0F7FF" />
<rect x="720" y="660" width="30" height="30" fill="#E0F7FF" />
<rect x="750" y="660" width="30" height="30" fill="#E0F7FF" />
<rect x="780" y="660" width="30" height="30" fill="#E0F7FF" />
<rect x="810" y="660" width="30" height="30" fill="#E0F7FF" />
<rect x="840" y="660" width="30" height="30" fill="#E0F7FF" />
<rect x="150" y="690" width="30" height="30" fill="#C38C66" opacity="0.086275" />
<rect x="180" y="690" width="30" height="30" fill="#66C1E0" />
<rect x="210" y="690" width="30" height="30" fill="#66C1E0" />
<rect x="240" y="690" width="30" height="30" fill="#66C1E0" />
<rect x="270" y="690" width="30" height="30" fill="#66C1E0" />
<rect x="300" y="690" width="30" height="30" fill="#66C1E0" />
<rect x="330" y="690" width="30" height="30" fill="#66C1E0" />
<rect x="360" y="690" width="30" height="30" fill="#66C1E0" />
<rect x="390" y="690" width="30" height="30" fill="#E0F7FF" />
<rect x="420" y="690" width="30" height="30" fill="#234754" />
<rect x="450" y="690" width="30" height="30" fill="#366272" />
<rect x="480" y="690" width="30" height="30" fill="#366272" />
<rect x="510" y="690" width="30" height="30" fill="#366272" />
<rect x="540" y="690" width="30" height="30" fill="#366272" />
<rect x="570" y="690" width="30" height="30" fill="#366272" />
<rect x="600" y="690" width="30" height="30" fill="#234754" />
<rect x="630" y="690" width="30" height="30" fill="#66C1E0" />
<rect x="660" y="690" width="30" height="30" fill="#E0F7FF" />
<rect x="690" y="690" width="30" height="30" fill="#E0F7FF" />
<rect x="720" y="690" width="30" height="30" fill="#E0F7FF" />
<rect x="750" y="690" width="30" height="30" fill="#E0F7FF" />
<rect x="780" y="690" width="30" height="30" fill="#E0F7FF" />
<rect x="810" y="690" width="30" height="30" fill="#E0F7FF" />
<rect x="840" y="690" width="30" height="30" fill="#E0F7FF" />
<rect x="150" y="720" width="30" height="30" fill="#66C1E0" />
<rect x="180" y="720" width="30" height="30" fill="#66C1E0" />
<rect x="210" y="720" width="30" height="30" fill="#66C1E0" />
<rect x="240" y="720" width="30" height="30" fill="#66C1E0" />
<rect x="270" y="720" width="30" height="30" fill="#E0F7FF" />
<rect x="300" y="720" width="30" height="30" fill="#E0F7FF" />
<rect x="330" y="720" width="30" height="30" fill="#E0F7FF" />
<rect x="360" y="720" width="30" height="30" fill="#E0F7FF" />
<rect x="390" y="720" width="30" height="30" fill="#366272" />
<rect x="420" y="720" width="30" height="30" fill="#366272" />
<rect x="450" y="720" width="30" height="30" fill="#366272" />
<rect x="480" y="720" width="30" height="30" fill="#366272" />
<rect x="510" y="720" width="30" height="30" fill="#366272" />
<rect x="540" y="720" width="30" height="30" fill="#366272" />
<rect x="570" y="720" width="30" height="30" fill="#366272" />
<rect x="600" y="720" width="30" height="30" fill="#366272" />
<rect x="630" y="720" width="30" height="30" fill="#366272" />
<rect x="660" y="720" width="30" height="30" fill="#66C1E0" />
<rect x="690" y="720" width="30" height="30" fill="#66C1E0" />
<rect x="720" y="720" width="30" height="30" fill="#66C1E0" />
<rect x="750" y="720" width="30" height="30" fill="#66C1E0" />
<rect x="780" y="720" width="30" height="30" fill="#E0F7FF" />
<rect x="810" y="720" width="30" height="30" fill="#E0F7FF" />
<rect x="840" y="720" width="30" height="30" fill="#E0F7FF" />
<rect x="870" y="720" width="30" height="30" fill="#E0F7FF" />
<rect x="120" y="750" width="30" height="30" fill="#BFE5EC" />
<rect x="150" y="750" width="30" height="30" fill="#BFE5EC" />
<rect x="180" y="750" width="30" height="30" fill="#BFE5EC" />
<rect x="210" y="750" width="30" height="30" fill="#BFE5EC" />
<rect x="240" y="750" width="30" height="30" fill="#BFE5EC" />
<rect x="270" y="750" width="30" height="30" fill="#BFE5EC" />
<rect x="300" y="750" width="30" height="30" fill="#BFE5EC" />
<rect x="330" y="750" width="30" height="30" fill="#BFE5EC" />
<rect x="360" y="750" width="30" height="30" fill="#BFE5EC" />
<rect x="390" y="750" width="30" height="30" fill="#BFE5EC" />
<rect x="420" y="750" width="30" height="30" fill="#BFE5EC" />
<rect x="450" y="750" width="30" height="30" fill="#BFE5EC" />
<rect x="480" y="750" width="30" height="30" fill="#BFE5EC" />
<rect x="510" y="750" width="30" height="30" fill="#BFE5EC" />
<rect x="540" y="750" width="30" height="30" fill="#BFE5EC" />
<rect x="570" y="750" width="30" height="30" fill="#BFE5EC" />
<rect x="600" y="750" width="30" height="30" fill="#BFE5EC" />
<rect x="630" y="750" width="30" height="30" fill="#BFE5EC" />
<rect x="660" y="750" width="30" height="30" fill="#BFE5EC" />
<rect x="690" y="750" width="30" height="30" fill="#BFE5EC" />
<rect x="720" y="750" width="30" height="30" fill="#BFE5EC" />
<rect x="750" y="750" width="30" height="30" fill="#BFE5EC" />
<rect x="780" y="750" width="30" height="30" fill="#BFE5EC" />
<rect x="810" y="750" width="30" height="30" fill="#BFE5EC" />
<rect x="840" y="750" width="30" height="30" fill="#BFE5EC" />
<rect x="870" y="750" width="30" height="30" fill="#BFE5EC" />
<rect x="900" y="750" width="30" height="30" fill="#BFE5EC" />
</svg>