<?xml version="1.0" encoding="UTF-8" ?>
<svg version="1.1" width="1050" height="1050" xmlns="http://www.w3.org/2000/svg">
<rect x="270" y="450" width="30" height="30" fill="#ABABAB" />
<rect x="300" y="450" width="30" height="30" fill="#ABABAB" />
<rect x="330" y="450" width="30" height="30" fill="#ABABAB" />
<rect x="360" y="450" width="30" height="30" fill="#ABABAB" />
<rect x="390" y="450" width="30" height="30" fill="#ABABAB" />
<rect x="420" y="450" width="30" height="30" fill="#ABABAB" />
<rect x="450" y="450" width="30" height="30" fill="#ABABAB" />
<rect x="480" y="450" width="30" height="30" fill="#ABABAB" />
<rect x="510" y="450" width="30" height="30" fill="#ABABAB" />
<rect x="540" y="450" width="30" height="30" fill="#ABABAB" />
<rect x="240" y="480" width="30" height="30" fill="#ABABAB" />
<rect x="270" y="480" width="30" height="30" fill="#E9E9E9" />
<rect x="300" y="480" width="30" height="30" fill="#E9E9E9" />
<rect x="330" y="480" width="30" height="30" fill="#E9E9E9" />
<rect x="360" y="480" width="30" height="30" fill="#E9E9E9" />
<rect x="390" y="480" width="30" height="30" fill="#E9E9E9" />
<rect x="420" y="480" width="30" height="30" fill="#E9E9E9" />
<rect x="450" y="480" width="30" height="30" fill="#E9E9E9" />
<rect x="480" y="480" width="30" height="30" fill="#E9E9E9" />
<rect x="510" y="480" width="30" height="30" fill="#E9E9E9" />
<rect x="540" y="480" width="30" height="30" fill="#E9E9E9" />
<rect x="570" y="480" width="30" height="30" fill="#ABABAB" />
<rect x="600" y="480" width="30" height="30" fill="#ABABAB" />
<rect x="630" y="480" width="30" height="30" fill="#ABABAB" />
<rect x="660" y="480" width="30" height="30" fill="#ABABAB" />
<rect x="690" y="480" width="30" height="30" fill="#ABABAB" />
<rect x="720" y="480" width="30" height="30" fill="#ABABAB" />
<rect x="210" y="510" width="30" height="30" fill="#ABABAB" />
<rect x="240" y="510" width="30" height="30" fill="#E9E9E9" />
<rect x="270" y="510" width="30" height="30" fill="#E9E9E9" />
<rect x="300" y="510" width="30" height="30" fill="#E9E9E9" />
<rect x="330" y="510" width="30" height="30" fill="#E9E9E9" />
<rect x="360" y="510" width="30" height="30" fill="#E9E9E9" />
<rect x="390" y="510" width="30" height="30" fill="#E9E9E9" />
<rect x="420" y="510" width="30" height="30" fill="#E9E9E9" />
<rect x="450" y="510" width="30" height="30" fill="#E9E9E9" />
<rect x="480" y="510" width="30" height="30" fill="#E9E9E9" />
<rect x="510" y="510" width="30" height="30" fill="#E9E9E9" />
<rect x="540" y="510" width="30" height="30" fill="#E9E9E9" />
<rect x="570" y="510" width="30" height="30" fill="#E9E9E9" />
<rect x="600" y="510" width="30" height="30" fill="#E9E9E9" />
<rect x="630" y="510" width="30" height="30" fill="#E9E9E9" />
<rect x="660" y="510" width="30" height="30" fill="#E9E9E9" />
<rect x="690" y="510" width="30" height="30" fill="#E9E9E9" />
<rect x="720" y="510" width="30" height="30" fill="#E9E9E9" />
<rect x="750" y="510" width="30" height="30" fill="#ABABAB" />
<rect x="780" y="510" width="30" height="30" fill="#ABABAB" />
<rect x="810" y="510" width="30" height="30" fill="#ABABAB" />
<rect x="840" y="510" width="30" height="30" fill="#ABABAB" />
<rect x="870" y="510" width="30" height="30" fill="#ABABAB" />
<rect x="150" y="540" width="30" height="30" fill="#ABABAB" />
<rect x="180" y="540" width="30" height="30" fill="#ABABAB" />
<rect x="210" y="540" width="30" height="30" fill="#ABABAB" />
<rect x="240" y="540" width="30" height="30" fill="#E9E9E9" />
<rect x="270" y="540" width="30" height="30" fill="#E9E9E9" />
<rect x="300" y="540" width="30" height="30" fill="#E9E9E9" />
<rect x="330" y="540" width="30" height="30" fill="#E9E9E9" />
<rect x="360" y="540" width="30" height="30" fill="#E9E9E9" />
<rect x="390" y="540" width="30" height="30" fill="#E9E9E9" />
<rect x="420" y="540" width="30" height="30" fill="#E9E9E9" />
<rect x="450" y="540" width="30" height="30" fill="#E9E9E9" />
<rect x="480" y="540" width="30" height="30" fill="#E9E9E9" />
<rect x="510" y="540" width="30" height="30" fill="#E9E9E9" />
<rect x="540" y="540" width="30" height="30" fill="#E9E9E9" />
<rect x="570" y="540" width="30" height="30" fill="#E9E9E9" />
<rect x="600" y="540" width="30" height="30" fill="#E9E9E9" />
<rect x="630" y="540" width="30" height="30" fill="#E9E9E9" />
<rect x="660" y="540" width="30" height="30" fill="#E9E9E9" />
<rect x="690" y="540" width="30" height="30" fill="#E9E9E9" />
<rect x="720" y="540" width="30" height="30" fill="#E9E9E9" />
<rect x="750" y="540" width="30" height="30" fill="#E9E9E9" />
<rect x="780" y="540" width="30" height="30" fill="#E9E9E9" />
<rect x="810" y="540" width="30" height="30" fill="#E9E9E9" />
<rect x="840" y="540" width="30" height="30" fill="#E9E9E9" />
<rect x="870" y="540" width="30" height="30" fill="#E9E9E9" />
<rect x="900" y="540" width="30" height="30" fill="#ABABAB" />
<rect x="150" y="570" width="30" height="30" fill="#ABABAB" />
<rect x="180" y="570" width="30" height="30" fill="#E9E9E9" />
<rect x="210" y="570" width="30" height="30" fill="#E9E9E9" />
<rect x="240" y="570" width="30" height="30" fill="#E9E9E9" />
<rect x="270" y="570" width="30" height="30" fill="#E9E9E9" />
<rect x="300" y="570" width="30" height="30" fill="#E9E9E9" />
<rect x="330" y="570" width="30" height="30" fill="#E9E9E9" />
<rect x="360" y="570" width="30" height="30" fill="#E9E9E9" />
<rect x="390" y="570" width="30" height="30" fill="#E9E9E9" />
<rect x="420" y="570" width="30" height="30" fill="#E9E9E9" />
<rect x="450" y="570" width="30" height="30" fill="#E9E9E9" />
<rect x="480" y="570" width="30" height="30" fill="#E9E9E9" />
<rect x="510" y="570" width="30" height="30" fill="#E9E9E9" />
<rect x="540" y="570" width="30" height="30" fill="#E9E9E9" />
<rect x="570" y="570" width="30" height="30" fill="#E9E9E9" />
<rect x="600" y="570" width="30" height="30" fill="#E9E9E9" />
<rect x="630" y="570" width="30" height="30" fill="#E9E9E9" />
<rect x="660" y="570" width="30" height="30" fill="#E9E9E9" />
<rect x="690" y="570" width="30" height="30" fill="#E9E9E9" />
<rect x="720" y="570" width="30" height="30" fill="#E9E9E9" />
<rect x="750" y="570" width="30" height="30" fill="#E9E9E9" />
<rect x="780" y="570" width="30" height="30" fill="#ABABAB" />
<rect x="810" y="570" width="30" height="30" fill="#E9E9E9" />
<rect x="840" y="570" width="30" height="30" fill="#E9E9E9" />
<rect x="870" y="570" width="30" height="30" fill="#E9E9E9" />
<rect x="900" y="570" width="30" height="30" fill="#E9E9E9" />
<rect x="930" y="570" width="30" height="30" fill="#ABABAB" />
<rect x="960" y="570" width="30" height="30" fill="#ABABAB" />
<rect x="90" y="600" width="30" height="30" fill="#ABABAB" />
<rect x="120" y="600" width="30" height="30" fill="#ABABAB" />
<rect x="150" y="600" width="30" height="30" fill="#E9E9E9" />
<rect x="180" y="600" width="30" height="30" fill="#E9E9E9" />
<rect x="210" y="600" width="30" height="30" fill="#E9E9E9" />
<rect x="240" y="600" width="30" height="30" fill="#E9E9E9" />
<rect x="270" y="600" width="30" height="30" fill="#E9E9E9" />
<rect x="300" y="600" width="30" height="30" fill="#E9E9E9" />
<rect x="330" y="600" width="30" height="30" fill="#E9E9E9" />
<rect x="360" y="600" width="30" height="30" fill="#E9E9E9" />
<rect x="390" y="600" width="30" height="30" fill="#E9E9E9" />
<rect x="420" y="600" width="30" height="30" fill="#E9E9E9" />
<rect x="450" y="600" width="30" height="30" fill="#E9E9E9" />
<rect x="480" y="600" width="30" height="30" fill="#E9E9E9" />
<rect x="510" y="600" width="30" height="30" fill="#E9E9E9" />
<rect x="540" y="600" width="30" height="30" fill="#E9E9E9" />
<rect x="570" y="600" width="30" height="30" fill="#E9E9E9" />
<rect x="600" y="600" width="30" height="30" fill="#E9E9E9" />
<rect x="630" y="600" width="30" height="30" fill="#E9E9E9" />
<rect x="660" y="600" width="30" height="30" fill="#E9E9E9" />
<rect x="690" y="600" width="30" height="30" fill="#E9E9E9" />
<rect x="720" y="600" width="30" height="30" fill="#E9E9E9" />
<rect x="750" y="600" width="30" height="30" fill="#E9E9E9" />
<rect x="780" y="600" width="30" height="30" fill="#ABABAB" />
<rect x="810" y="600" width="30" height="30" fill="#E9E9E9" />
<rect x="840" y="600" width="30" height="30" fill="#E9E9E9" />
<rect x="870" y="600" width="30" height="30" fill="#E9E9E9" />
<rect x="900" y="600" width="30" height="30" fill="#E9E9E9" />
<rect x="930" y="600" width="30" height="30" fill="#E9E9E9" />
<rect x="960" y="600" width="30" height="30" fill="#E9E9E9" />
<rect x="990" y="600" width="30" height="30" fill="#ABABAB" />
<rect x="90" y="630" width="30" height="30" fill="#ABABAB" />
<rect x="120" y="630" width="30" height="30" fill="#E9E9E9" />
<rect x="150" y="630" width="30" height="30" fill="#E9E9E9" />
<rect x="180" y="630" width="30" height="30" fill="#E9E9E9" />
<rect x="210" y="630" width="30" height="30" fill="#E9E9E9" />
<rect x="240" y="630" width="30" height="30" fill="#E9E9E9" />
<rect x="270" y="630" width="30" height="30" fill="#E9E9E9" />
<rect x="300" y="630" width="30" height="30" fill="#E9E9E9" />
<rect x="330" y="630" width="30" height="30" fill="#E9E9E9" />
<rect x="360" y="630" width="30" height="30" fill="#E9E9E9" />
<rect x="390" y="630" width="30" height="30" fill="#E9E9E9" />
<rect x="420" y="630" width="30" height="30" fill="#E9E9E9" />
<rect x="450" y="630" width="30" height="30" fill="#E9E9E9" />
<rect x="480" y="630" width="30" height="30" fill="#E9E9E9" />
<rect x="510" y="630" width="30" height="30" fill="#E9E9E9" />
<rect x="540" y="630" width="30" height="30" fill="#E9E9E9" />
<rect x="570" y="630" width="30" height="30" fill="#E9E9E9" />
<rect x="600" y="630" width="30" height="30" fill="#E9E9E9" />
<rect x="630" y="630" width="30" height="30" fill="#E9E9E9" />
<rect x="660" y="630" width="30" height="30" fill="#E9E9E9" />
<rect x="690" y="630" width="30" height="30" fill="#E9E9E9" />
<rect x="720" y="630" width="30" height="30" fill="#E9E9E9" />
<rect x="750" y="630" width="30" height="30" fill="#E9E9E9" />
<rect x="780" y="630" width="30" height="30" fill="#E9E9E9" />
<rect x="810" y="630" width="30" height="30" fill="#E9E9E9" />
<rect x="840" y="630" width="30" height="30" fill="#E9E9E9" />
<rect x="870" y="630" width="30" height="30" fill="#281A0C" />
<rect x="900" y="630" width="30" height="30" fill="#FFFFFF" />
<rect x="930" y="630" width="30" height="30" fill="#E9E9E9" />
<rect x="960" y="630" width="30" height="30" fill="#E9E9E9" />
<rect x="990" y="630" width="30" height="30" fill="#1F1F1F" />
<rect x="90" y="660" width="30" height="30" fill="#ABABAB" />
<rect x="120" y="660" width="30" height="30" fill="#E9E9E9" />
<rect x="150" y="660" width="30" height="30" fill="#E9E9E9" />
<rect x="180" y="660" width="30" height="30" fill="#E9E9E9" />
<rect x="210" y="660" width="30" height="30" fill="#E9E9E9" />
<rect x="240" y="660" width="30" height="30" fill="#E9E9E9" />
<rect x="270" y="660" width="30" height="30" fill="#E9E9E9" />
<rect x="300" y="660" width="30" height="30" fill="#E9E9E9" />
<rect x="330" y="660" width="30" height="30" fill="#E9E9E9" />
<rect x="360" y="660" width="30" height="30" fill="#E9E9E9" />
<rect x="390" y="660" width="30" height="30" fill="#E9E9E9" />
<rect x="420" y="660" width="30" height="30" fill="#E9E9E9" />
<rect x="450" y="660" width="30" height="30" fill="#E9E9E9" />
<rect x="480" y="660" width="30" height="30" fill="#E9E9E9" />
<rect x="510" y="660" width="30" height="30" fill="#E9E9E9" />
<rect x="540" y="660" width="30" height="30" fill="#E9E9E9" />
<rect x="570" y="660" width="30" height="30" fill="#E9E9E9" />
<rect x="600" y="660" width="30" height="30" fill="#E9E9E9" />
<rect x="630" y="660" width="30" height="30" fill="#E9E9E9" />
<rect x="660" y="660" width="30" height="30" fill="#E9E9E9" />
<rect x="690" y="660" width="30" height="30" fill="#E9E9E9" />
<rect x="720" y="660" width="30" height="30" fill="#E9E9E9" />
<rect x="750" y="660" width="30" height="30" fill="#E9E9E9" />
<rect x="780" y="660" width="30" height="30" fill="#E9E9E9" />
<rect x="810" y="660" width="30" height="30" fill="#E9E9E9" />
<rect x="840" y="660" width="30" height="30" fill="#E9E9E9" />
<rect x="870" y="660" width="30" height="30" fill="#1F1F1F" />
<rect x="900" y="660" width="30" height="30" fill="#281A0C" />
<rect x="930" y="660" width="30" height="30" fill="#E9E9E9" />
<rect x="960" y="660" width="30" height="30" fill="#E9E9E9" />
<rect x="990" y="660" width="30" height="30" fill="#E9E9E9" />
<rect x="60" y="690" width="30" height="30" fill="#ABABAB" />
<rect x="90" y="690" width="30" height="30" fill="#E9E9E9" />
<rect x="120" y="690" width="30" height="30" fill="#E9E9E9" />
<rect x="150" y="690" width="30" height="30" fill="#E9E9E9" />
<rect x="180" y="690" width="30" height="30" fill="#E9E9E9" />
<rect x="210" y="690" width="30" height="30" fill="#E9E9E9" />
<rect x="240" y="690" width="30" height="30" fill="#E9E9E9" />
<rect x="270" y="690" width="30" height="30" fill="#E9E9E9" />
<rect x="300" y="690" width="30" height="30" fill="#E9E9E9" />
<rect x="330" y="690" width="30" height="30" fill="#E9E9E9" />
<rect x="360" y="690" width="30" height="30" fill="#E9E9E9" />
<rect x="390" y="690" width="30" height="30" fill="#E9E9E9" />
<rect x="420" y="690" width="30" height="30" fill="#E9E9E9" />
<rect x="450" y="690" width="30" height="30" fill="#E9E9E9" />
<rect x="480" y="690" width="30" height="30" fill="#E9E9E9" />
<rect x="510" y="690" width="30" height="30" fill="#E9E9E9" />
<rect x="540" y="690" width="30" height="30" fill="#E9E9E9" />
<rect x="570" y="690" width="30" height="30" fill="#E9E9E9" />
<rect x="600" y="690" width="30" height="30" fill="#E9E9E9" />
<rect x="630" y="690" width="30" height="30" fill="#E9E9E9" />
<rect x="660" y="690" width="30" height="30" fill="#D3D3D3" />
<rect x="690" y="690" width="30" height="30" fill="#D3D3D3" />
<rect x="720" y="690" width="30" height="30" fill="#D3D3D3" />
<rect x="750" y="690" width="30" height="30" fill="#D3D3D3" />
<rect x="780" y="690" width="30" height="30" fill="#D3D3D3" />
<rect x="810" y="690" width="30" height="30" fill="#D3D3D3" />
<rect x="840" y="690" width="30" height="30" fill="#D3D3D3" />
<rect x="870" y="690" width="30" height="30" fill="#D3D3D3" />
<rect x="900" y="690" width="30" height="30" fill="#D3D3D3" />
<rect x="930" y="690" width="30" height="30" fill="#D3D3D3" />
<rect x="960" y="690" width="30" height="30" fill="#D3D3D3" />
<rect x="990" y="690" width="30" height="30" fill="#D3D3D3" />
<rect x="60" y="720" width="30" height="30" fill="#ABABAB" />
<rect x="90" y="720" width="30" height="30" fill="#E9E9E9" />
<rect x="120" y="720" width="30" height="30" fill="#E9E9E9" />
<rect x="150" y="720" width="30" height="30" fill="#E9E9E9" />
<rect x="180" y="720" width="30" height="30" fill="#E9E9E9" />
<rect x="210" y="720" width="30" height="30" fill="#E9E9E9" />
<rect x="240" y="720" width="30" height="30" fill="#E9E9E9" />
<rect x="270" y="720" width="30" height="30" fill="#E9E9E9" />
<rect x="300" y="720" width="30" height="30" fill="#E9E9E9" />
<rect x="330" y="720" width="30" height="30" fill="#E9E9E9" />
<rect x="360" y="720" width="30" height="30" fill="#E9E9E9" />
<rect x="390" y="720" width="30" height="30" fill="#E9E9E9" />
<rect x="420" y="720" width="30" height="30" fill="#E9E9E9" />
<rect x="450" y="720" width="30" height="30" fill="#E9E9E9" />
<rect x="480" y="720" width="30" height="30" fill="#E9E9E9" />
<rect x="510" y="720" width="30" height="30" fill="#E9E9E9" />
<rect x="540" y="720" width="30" height="30" fill="#E9E9E9" />
<rect x="570" y="720" width="30" height="30" fill="#D3D3D3" />
<rect x="600" y="720" width="30" height="30" fill="#D3D3D3" />
<rect x="630" y="720" width="30" height="30" fill="#D3D3D3" />
<rect x="660" y="720" width="30" height="30" fill="#D3D3D3" />
<rect x="690" y="720" width="30" height="30" fill="#D3D3D3" />
<rect x="720" y="720" width="30" height="30" fill="#D3D3D3" />
<rect x="750" y="720" width="30" height="30" fill="#D3D3D3" />
<rect x="840" y="720" width="30" height="30" fill="#D3D3D3" />
<rect x="870" y="720" width="30" height="30" fill="#D3D3D3" />
<rect x="900" y="720" width="30" height="30" fill="#D3D3D3" />
<rect x="930" y="720" width="30" height="30" fill="#D3D3D3" />
<rect x="960" y="720" width="30" height="30" fill="#D3D3D3" />
<rect x="30" y="750" width="30" height="30" fill="#ABABAB" />
<rect x="60" y="750" width="30" height="30" fill="#ABABAB" />
<rect x="90" y="750" width="30" height="30" fill="#E9E9E9" />
<rect x="120" y="750" width="30" height="30" fill="#E9E9E9" />
<rect x="150" y="750" width="30" height="30" fill="#E9E9E9" />
<rect x="180" y="750" width="30" height="30" fill="#E9E9E9" />
<rect x="210" y="750" width="30" height="30" fill="#E9E9E9" />
<rect x="240" y="750" width="30" height="30" fill="#E9E9E9" />
<rect x="270" y="750" width="30" height="30" fill="#E9E9E9" />
<rect x="300" y="750" width="30" height="30" fill="#E9E9E9" />
<rect x="330" y="750" width="30" height="30" fill="#E9E9E9" />
<rect x="360" y="750" width="30" height="30" fill="#E9E9E9" />
<rect x="390" y="750" width="30" height="30" fill="#E9E9E9" />
<rect x="420" y="750" width="30" height="30" fill="#E9E9E9" />
<rect x="450" y="750" width="30" height="30" fill="#E9E9E9" />
<rect x="480" y="750" width="30" height="30" fill="#E9E9E9" />
<rect x="510" y="750" width="30" height="30" fill="#D3D3D3" />
<rect x="540" y="750" width="30" height="30" fill="#D3D3D3" />
<rect x="570" y="750" width="30" height="30" fill="#D3D3D3" />
<rect x="600" y="750" width="30" height="30" fill="#D3D3D3" />
<rect x="630" y="750" width="30" height="30" fill="#D3D3D3" />
<rect x="660" y="750" width="30" height="30" fill="#D3D3D3" />
<rect x="690" y="750" width="30" height="30" fill="#D3D3D3" />
<rect x="720" y="750" width="30" height="30" fill="#D3D3D3" />
<rect x="750" y="750" width="30" height="30" fill="#D3D3D3" />
<rect x="30" y="780" width="30" height="30" fill="#ABABAB" />
<rect x="60" y="780" width="30" height="30" fill="#E9E9E9" />
<rect x="90" y="780" width="30" height="30" fill="#E9E9E9" />
<rect x="120" y="780" width="30" height="30" fill="#E9E9E9" />
<rect x="150" y="780" width="30" height="30" fill="#E9E9E9" />
<rect x="180" y="780" width="30" height="30" fill="#E9E9E9" />
<rect x="210" y="780" width="30" height="30" fill="#E9E9E9" />
<rect x="240" y="780" width="30" height="30" fill="#E9E9E9" />
<rect x="270" y="780" width="30" height="30" fill="#E9E9E9" />
<rect x="300" y="780" width="30" height="30" fill="#E9E9E9" />
<rect x="330" y="780" width="30" height="30" fill="#E9E9E9" />
<rect x="360" y="780" width="30" height="30" fill="#E9E9E9" />
<rect x="390" y="780" width="30" height="30" fill="#E9E9E9" />
<rect x="420" y="780" width="30" height="30" fill="#E9E9E9" />
<rect x="450" y="780" width="30" height="30" fill="#D3D3D3" />
<rect x="480" y="780" width="30" height="30" fill="#D3D3D3" />
<rect x="510" y="780" width="30" height="30" fill="#D3D3D3" />
<rect x="540" y="780" width="30" height="30" fill="#D3D3D3" />
<rect x="570" y="780" width="30" height="30" fill="#D3D3D3" />
<rect x="600" y="780" width="30" height="30" fill="#D3D3D3" />
<rect x="630" y="780" width="30" height="30" fill="#D3D3D3" />
<rect x="660" y="780" width="30" height="30" fill="#D3D3D3" />
<rect x="690" y="780" width="30" height="30" fill="#D3D3D3" />
<rect x="30" y="810" width="30" height="30" fill="#ABABAB" />
<rect x="60" y="810" width="30" height="30" fill="#E9E9E9" />
<rect x="90" y="810" width="30" height="30" fill="#E9E9E9" />
<rect x="120" y="810" width="30" height="30" fill="#E9E9E9" />
<rect x="150" y="810" width="30" height="30" fill="#E9E9E9" />
<rect x="180" y="810" width="30" height="30" fill="#E9E9E9" />
<rect x="210" y="810" width="30" height="30" fill="#E9E9E9" />
<rect x="240" y="810" width="30" height="30" fill="#E9E9E9" />
<rect x="270" y="810" width="30" height="30" fill="#D3D3D3" />
<rect x="300" y="810" width="30" height="30" fill="#D3D3D3" />
<rect x="330" y="810" width="30" height="30" fill="#D3D3D3" />
<rect x="360" y="810" width="30" height="30" fill="#D3D3D3" />
<rect x="390" y="810" width="30" height="30" fill="#D3D3D3" />
<rect x="420" y="810" width="30" height="30" fill="#D3D3D3" />
<rect x="450" y="810" width="30" height="30" fill="#D3D3D3" />
<rect x="480" y="810" width="30" height="30" fill="#D3D3D3" />
<rect x="510" y="810" width="30" height="30" fill="#D3D3D3" />
<rect x="540" y="810" width="30" height="30" fill="#D3D3D3" />
<rect x="570" y="810" width="30" height="30" fill="#D3D3D3" />
<rect x="600" y="810" width="30" height="30" fill="#D3D3D3" />
<rect x="630" y="810" width="30" height="30" fill="#D3D3D3" />
<rect x="30" y="840" width="30" height="30" fill="#ABABAB" />
<rect x="60" y="840" width="30" height="30" fill="#E9E9E9" />
<rect x="90" y="840" width="30" height="30" fill="#E9E9E9" />
<rect x="120" y="840" width="30" height="30" fill="#E9E9E9" />
<rect x="150" y="840" width="30" height="30" fill="#E9E9E9" />
<rect x="180" y="840" width="30" height="30" fill="#E9E9E9" />
<rect x="210" y="840" width="30" height="30" fill="#E9E9E9" />
<rect x="240" y="840" width="30" height="30" fill="#D3D3D3" />
<rect x="270" y="840" width="30" height="30" fill="#D3D3D3" />
<rect x="300" y="840" width="30" height="30" fill="#D3D3D3" />
<rect x="330" y="840" width="30" height="30" fill="#D3D3D3" />
<rect x="360" y="840" width="30" height="30" fill="#D3D3D3" />
<rect x="390" y="840" width="30" height="30" fill="#D3D3D3" />
<rect x="420" y="840" width="30" height="30" fill="#D3D3D3" />
<rect x="450" y="840" width="30" height="30" fill="#D3D3D3" />
<rect x="480" y="840" width="30" height="30" fill="#D3D3D3" />
<rect x="510" y="840" width="30" height="30" fill="#ABABAB" />
<rect x="540" y="840" width="30" height="30" fill="#D3D3D3" />
<rect x="570" y="840" width="30" height="30" fill="#D3D3D3" />
<rect x="600" y="840" width="30" height="30" fill="#D3D3D3" />
<rect x="630" y="840" width="30" height="30" fill="#D3D3D3" />
<rect x="30" y="870" width="30" height="30" fill="#ABABAB" />
<rect x="60" y="870" width="30" height="30" fill="#E9E9E9" />
<rect x="90" y="870" width="30" height="30" fill="#E9E9E9" />
<rect x="120" y="870" width="30" height="30" fill="#E9E9E9" />
<rect x="150" y="870" width="30" height="30" fill="#E9E9E9" />
<rect x="180" y="870" width="30" height="30" fill="#E9E9E9" />
<rect x="210" y="870" width="30" height="30" fill="#D3D3D3" />
<rect x="240" y="870" width="30" height="30" fill="#D3D3D3" />
<rect x="270" y="870" width="30" height="30" fill="#D3D3D3" />
<rect x="300" y="870" width="30" height="30" fill="#D3D3D3" />
<rect x="330" y="870" width="30" height="30" fill="#D3D3D3" />
<rect x="360" y="870" width="30" height="30" fill="#D3D3D3" />
<rect x="390" y="870" width="30" height="30" fill="#D3D3D3" />
<rect x="450" y="870" width="30" height="30" fill="#ABABAB" />
<rect x="480" y="870" width="30" height="30" fill="#ABABAB" />
<rect x="510" y="870" width="30" height="30" fill="#ABABAB" />
<rect x="570" y="870" width="30" height="30" fill="#D3D3D3" />
<rect x="600" y="870" width="30" height="30" fill="#D3D3D3" />
<rect x="630" y="870" width="30" height="30" fill="#D3D3D3" />
<rect x="30" y="900" width="30" height="30" fill="#ABABAB" />
<rect x="60" y="900" width="30" height="30" fill="#E9E9E9" />
<rect x="90" y="900" width="30" height="30" fill="#E9E9E9" />
<rect x="120" y="900" width="30" height="30" fill="#E9E9E9" />
<rect x="150" y="900" width="30" height="30" fill="#E9E9E9" />
<rect x="180" y="900" width="30" height="30" fill="#D3D3D3" />
<rect x="210" y="900" width="30" height="30" fill="#D3D3D3" />
<rect x="240" y="900" width="30" height="30" fill="#D3D3D3" />
<rect x="270" y="900" width="30" height="30" fill="#D3D3D3" />
<rect x="300" y="900" width="30" height="30" fill="#D3D3D3" />
<rect x="330" y="900" width="30" height="30" fill="#D3D3D3" />
<rect x="360" y="900" width="30" height="30" fill="#D3D3D3" />
<rect x="390" y="900" width="30" height="30" fill="#D3D3D3" />
<rect x="450" y="900" width="30" height="30" fill="#ABABAB" />
<rect x="480" y="900" width="30" height="30" fill="#ABABAB" />
<rect x="510" y="900" width="30" height="30" fill="#ABABAB" />
<rect x="570" y="900" width="30" height="30" fill="#D3D3D3" />
<rect x="600" y="900" width="30" height="30" fill="#D3D3D3" />
<rect x="630" y="900" width="30" height="30" fill="#D3D3D3" />
<rect x="660" y="900" width="30" height="30" fill="#D3D3D3" />
<rect x="30" y="930" width="30" height="30" fill="#ABABAB" />
<rect x="60" y="930" width="30" height="30" fill="#E9E9E9" />
<rect x="90" y="930" width="30" height="30" fill="#E9E9E9" />
<rect x="120" y="930" width="30" height="30" fill="#E9E9E9" />
<rect x="150" y="930" width="30" height="30" fill="#E9E9E9" />
<rect x="180" y="930" width="30" height="30" fill="#ABABAB" />
<rect x="210" y="930" width="30" height="30" fill="#ABABAB" />
<rect x="240" y="930" width="30" height="30" fill="#ABABAB" />
<rect x="270" y="930" width="30" height="30" fill="#ABABAB" />
<rect x="450" y="930" width="30" height="30" fill="#ABABAB" />
<rect x="480" y="930" width="30" height="30" fill="#ABABAB" />
<rect x="510" y="930" width="30" height="30" fill="#ABABAB" />
<rect x="570" y="930" width="30" height="30" fill="#D3D3D3" />
<rect x="600" y="930" width="30" height="30" fill="#D3D3D3" />
<rect x="630" y="930" width="30" height="30" fill="#D3D3D3" />
<rect x="660" y="930" width="30" height="30" fill="#D3D3D3" />
<rect x="30" y="960" width="30" height="30" fill="#ABABAB" />
<rect x="60" y="960" width="30" height="30" fill="#E9E9E9" />
<rect x="90" y="960" width="30" height="30" fill="#E9E9E9" />
<rect x="120" y="960" width="30" height="30" fill="#E9E9E9" />
<rect x="210" y="960" width="30" height="30" fill="#ABABAB" />
<rect x="240" y="960" width="30" height="30" fill="#ABABAB" />
<rect x="270" y="960" width="30" height="30" fill="#ABABAB" />
<rect x="420" y="960" width="30" height="30" fill="#ABABAB" />
<rect x="450" y="960" width="30" height="30" fill="#ABABAB" />
<rect x="480" y="960" width="30" height="30" fill="#ABABAB" />
<rect x="600" y="960" width="30" height="30" fill="#D3D3D3" />
<rect x="630" y="960" width="30" height="30" fill="#D3D3D3" />
<rect x="660" y="960" width="30" height="30" fill="#D3D3D3" />
<rect x="30" y="990" width="30" height="30" fill="#ABABAB" />
<rect x="60" y="990" width="30" height="30" fill="#E9E9E9" />
<rect x="90" y="990" width="30" height="30" fill="#E9E9E9" />
<rect x="120" y="990" width="30" height="30" fill="#E9E9E9" />
<rect x="150" y="990" width="30" height="30" fill="#E9E9E9" />
<rect x="210" y="990" width="30" height="30" fill="#ABABAB" />
<rect x="240" y="990" width="30" height="30" fill="#ABABAB" />
<rect x="270" y="990" width="30" height="30" fill="#ABABAB" />
<rect x="300" y="990" width="30" height="30" fill="#ABABAB" />
<rect x="330" y="990" width="30" height="30" fill="#ABABAB" />
<rect x="420" y="990" width="30" height="30" fill="#ABABAB" />
<rect x="450" y="990" width="30" height="30" fill="#ABABAB" />
<rect x="480" y="990" width="30" height="30" fill="#ABABAB" />
<rect x="510" y="990" width="30" height="30" fill="#ABABAB" />
<rect x="540" y="990" width="30" height="30" fill="#ABABAB" />
<rect x="600" y="990" width="30" height="30" fill="#D3D3D3" />
<rect x="630" y="990" width="30" height="30" fill="#D3D3D3" />
<rect x="660" y="990" width="30" height="30" fill="#D3D3D3" />
<rect x="690" y="990" width="30" height="30" fill="#D3D3D3" />
<rect x="30" y="1020" width="30" height="30" fill="#ABABAB" />
<rect x="60" y="1020" width="30" height="30" fill="#E9E9E9" />
<rect x="90" y="1020" width="30" height="30" fill="#E9E9E9" />
<rect x="120" y="1020" width="30" height="30" fill="#E9E9E9" />
<rect x="150" y="1020" width="30" height="30" fill="#E9E9E9" />
<rect x="210" y="1020" width="30" height="30" fill="#ABABAB" />
<rect x="240" y="1020" width="30" height="30" fill="#ABABAB" />
<rect x="270" y="1020" width="30" height="30" fill="#ABABAB" />
<rect x="300" y="1020" width="30" height="30" fill="#ABABAB" />
<rect x="330" y="1020" width="30" height="30" fill="#ABABAB" />
<rect x="420" y="1020" width="30" height="30" fill="#ABABAB" />
<rect x="450" y="1020" width="30" height="30" fill="#ABABAB" />
<rect x="480" y="1020" width="30" height="30" fill="#ABABAB" />
<rect x="510" y="1020" width="30" height="30" fill="#ABABAB" />
<rect x="540" y="1020" width="30" height="30" fill="#ABABAB" />
<rect x="630" y="1020" width="30" height="30" fill="#D3D3D3" />
<rect x="660" y="1020" width="30" height="30" fill="#D3D3D3" />
<rect x="690" y="1020" width="30" height="30" fill="#D3D3D3" />
</svg>