<?xml version="1.0" encoding="UTF-8" ?>
<svg version="1.1" width="300" height="600" xmlns="http://www.w3.org/2000/svg">
<rect x="90" y="0" width="30" height="30" fill="#805424" />
<rect x="120" y="0" width="30" height="30" fill="#805424" />
<rect x="60" y="30" width="30" height="30" fill="#805424" />
<rect x="90" y="30" width="30" height="30" fill="#926431" />
<rect x="120" y="30" width="30" height="30" fill="#926431" />
<rect x="150" y="30" width="30" height="30" fill="#805424" />
<rect x="30" y="60" width="30" height="30" fill="#805424" />
<rect x="60" y="60" width="30" height="30" fill="#926431" />
<rect x="150" y="60" width="30" height="30" fill="#926431" />
<rect x="180" y="60" width="30" height="30" fill="#805424" />
<rect x="30" y="90" width="30" height="30" fill="#805424" />
<rect x="60" y="90" width="30" height="30" fill="#926431" />
<rect x="150" y="90" width="30" height="30" fill="#926431" />
<rect x="180" y="90" width="30" height="30" fill="#805424" />
<rect x="30" y="120" width="30" height="30" fill="#805424" />
<rect x="60" y="120" width="30" height="30" fill="#926431" />
<rect x="150" y="120" width="30" height="30" fill="#926431" />
<rect x="180" y="120" width="30" height="30" fill="#805424" />
<rect x="60" y="150" width="30" height="30" fill="#805424" />
<rect x="90" y="150" width="30" height="30" fill="#805424" />
<rect x="150" y="150" width="30" height="30" fill="#805424" />
<rect x="90" y="180" width="30" height="30" fill="#926431" />
<rect x="120" y="180" width="30" height="30" fill="#926431" />
<rect x="150" y="180" width="30" height="30" fill="#926431" />
<rect x="90" y="210" width="30" height="30" fill="#805424" />
<rect x="120" y="210" width="30" height="30" fill="#805424" />
<rect x="150" y="210" width="30" height="30" fill="#805424" />
<rect x="60" y="240" width="30" height="30" fill="#805424" />
<rect x="90" y="240" width="30" height="30" fill="#926431" />
<rect x="150" y="240" width="30" height="30" fill="#926431" />
<rect x="180" y="240" width="30" height="30" fill="#805424" />
<rect x="60" y="270" width="30" height="30" fill="#805424" />
<rect x="90" y="270" width="30" height="30" fill="#926431" />
<rect x="180" y="270" width="30" height="30" fill="#926431" />
<rect x="210" y="270" width="30" height="30" fill="#805424" />
<rect x="60" y="300" width="30" height="30" fill="#805424" />
<rect x="90" y="300" width="30" height="30" fill="#926431" />
<rect x="180" y="300" width="30" height="30" fill="#926431" />
<rect x="210" y="300" width="30" height="30" fill="#805424" />
<rect x="60" y="330" width="30" height="30" fill="#805424" />
<rect x="90" y="330" width="30" height="30" fill="#926431" />
<rect x="180" y="330" width="30" height="30" fill="#926431" />
<rect x="210" y="330" width="30" height="30" fill="#805424" />
<rect x="60" y="360" width="30" height="30" fill="#926431" />
<rect x="90" y="360" width="30" height="30" fill="#805424" />
<rect x="120" y="360" width="30" height="30" fill="#926431" />
<rect x="150" y="360" width="30" height="30" fill="#926431" />
<rect x="180" y="360" width="30" height="30" fill="#805424" />
<rect x="30" y="390" width="30" height="30" fill="#926431" />
<rect x="60" y="390" width="30" height="30" fill="#805424" />
<rect x="120" y="390" width="30" height="30" fill="#805424" />
<rect x="150" y="390" width="30" height="30" fill="#805424" />
<rect x="30" y="420" width="30" height="30" fill="#926431" />
<rect x="60" y="420" width="30" height="30" fill="#805424" />
</svg>