<?xml version="1.0" encoding="UTF-8" ?>
<svg version="1.1" width="510" height="420" xmlns="http://www.w3.org/2000/svg">
<rect x="60" y="0" width="30" height="30" fill="#E25F5F" />
<rect x="90" y="0" width="30" height="30" fill="#E25F5F" />
<rect x="120" y="0" width="30" height="30" fill="#E25F5F" />
<rect x="30" y="30" width="30" height="30" fill="#E25F5F" />
<rect x="60" y="30" width="30" height="30" fill="#AD3232" />
<rect x="90" y="30" width="30" height="30" fill="#AD3232" />
<rect x="120" y="30" width="30" height="30" fill="#AD3232" />
<rect x="150" y="30" width="30" height="30" fill="#E25F5F" />
<rect x="180" y="30" width="30" height="30" fill="#E25F5F" />
<rect x="0" y="60" width="30" height="30" fill="#AD3232" />
<rect x="30" y="60" width="30" height="30" fill="#AD3232" />
<rect x="60" y="60" width="30" height="30" fill="#AD3232" />
<rect x="90" y="60" width="30" height="30" fill="#AD3232" />
<rect x="120" y="60" width="30" height="30" fill="#AD3232" />
<rect x="150" y="60" width="30" height="30" fill="#AD3232" />
<rect x="180" y="60" width="30" height="30" fill="#050708" />
<rect x="210" y="60" width="30" height="30" fill="#050708" />
<rect x="240" y="60" width="30" height="30" fill="#050708" />
<rect x="0" y="90" width="30" height="30" fill="#AD3232" />
<rect x="30" y="90" width="30" height="30" fill="#AD3232" />
<rect x="60" y="90" width="30" height="30" fill="#AD3232" />
<rect x="90" y="90" width="30" height="30" fill="#AD3232" />
<rect x="120" y="90" width="30" height="30" fill="#AD3232" />
<rect x="150" y="90" width="30" height="30" fill="#050708" />
<rect x="180" y="90" width="30" height="30" fill="#050708" />
<rect x="210" y="90" width="30" height="30" fill="#E25F5F" />
<rect x="240" y="90" width="30" height="30" fill="#E25F5F" />
<rect x="270" y="90" width="30" height="30" fill="#E25F5F" />
<rect x="0" y="120" width="30" height="30" fill="#902122" />
<rect x="30" y="120" width="30" height="30" fill="#AD3232" />
<rect x="60" y="120" width="30" height="30" fill="#AD3232" />
<rect x="90" y="120" width="30" height="30" fill="#AD3232" />
<rect x="120" y="120" width="30" height="30" fill="#050708" />
<rect x="150" y="120" width="30" height="30" fill="#050708" />
<rect x="180" y="120" width="30" height="30" fill="#AD3232" />
<rect x="210" y="120" width="30" height="30" fill="#AD3232" />
<rect x="240" y="120" width="30" height="30" fill="#AD3232" />
<rect x="270" y="120" width="30" height="30" fill="#AD3232" />
<rect x="300" y="120" width="30" height="30" fill="#E25F5F" />
<rect x="330" y="120" width="30" height="30" fill="#E25F5F" />
<rect x="0" y="150" width="30" height="30" fill="#902122" />
<rect x="30" y="150" width="30" height="30" fill="#902122" />
<rect x="60" y="150" width="30" height="30" fill="#902122" />
<rect x="90" y="150" width="30" height="30" fill="#050708" />
<rect x="120" y="150" width="30" height="30" fill="#050708" />
<rect x="150" y="150" width="30" height="30" fill="#AD3232" />
<rect x="180" y="150" width="30" height="30" fill="#AD3232" />
<rect x="210" y="150" width="30" height="30" fill="#AD3232" />
<rect x="240" y="150" width="30" height="30" fill="#AD3232" />
<rect x="270" y="150" width="30" height="30" fill="#AD3232" />
<rect x="300" y="150" width="30" height="30" fill="#AD3232" />
<rect x="330" y="150" width="30" height="30" fill="#AD3232" />
<rect x="360" y="150" width="30" height="30" fill="#E25F5F" />
<rect x="390" y="150" width="30" height="30" fill="#E25F5F" />
<rect x="0" y="180" width="30" height="30" fill="#902122" />
<rect x="30" y="180" width="30" height="30" fill="#902122" />
<rect x="60" y="180" width="30" height="30" fill="#902122" />
<rect x="90" y="180" width="30" height="30" fill="#050708" />
<rect x="120" y="180" width="30" height="30" fill="#AD3232" />
<rect x="150" y="180" width="30" height="30" fill="#AD3232" />
<rect x="180" y="180" width="30" height="30" fill="#AD3232" />
<rect x="210" y="180" width="30" height="30" fill="#AD3232" />
<rect x="240" y="180" width="30" height="30" fill="#AD3232" />
<rect x="270" y="180" width="30" height="30" fill="#AD3232" />
<rect x="300" y="180" width="30" height="30" fill="#AD3232" />
<rect x="330" y="180" width="30" height="30" fill="#AD3232" />
<rect x="360" y="180" width="30" height="30" fill="#050708" />
<rect x="390" y="180" width="30" height="30" fill="#050708" />
<rect x="420" y="180" width="30" height="30" fill="#050708" />
<rect x="60" y="210" width="30" height="30" fill="#902122" />
<rect x="90" y="210" width="30" height="30" fill="#050708" />
<rect x="120" y="210" width="30" height="30" fill="#902122" />
<rect x="150" y="210" width="30" height="30" fill="#902122" />
<rect x="180" y="210" width="30" height="30" fill="#902122" />
<rect x="210" y="210" width="30" height="30" fill="#AD3232" />
<rect x="240" y="210" width="30" height="30" fill="#AD3232" />
<rect x="270" y="210" width="30" height="30" fill="#AD3232" />
<rect x="300" y="210" width="30" height="30" fill="#AD3232" />
<rect x="330" y="210" width="30" height="30" fill="#050708" />
<rect x="360" y="210" width="30" height="30" fill="#050708" />
<rect x="390" y="210" width="30" height="30" fill="#E25F5F" />
<rect x="420" y="210" width="30" height="30" fill="#E25F5F" />
<rect x="450" y="210" width="30" height="30" fill="#E25F5F" />
<rect x="480" y="210" width="30" height="30" fill="#E25F5F" />
<rect x="120" y="240" width="30" height="30" fill="#902122" />
<rect x="150" y="240" width="30" height="30" fill="#902122" />
<rect x="180" y="240" width="30" height="30" fill="#902122" />
<rect x="210" y="240" width="30" height="30" fill="#902122" />
<rect x="240" y="240" width="30" height="30" fill="#AD3232" />
<rect x="270" y="240" width="30" height="30" fill="#AD3232" />
<rect x="300" y="240" width="30" height="30" fill="#050708" />
<rect x="330" y="240" width="30" height="30" fill="#050708" />
<rect x="360" y="240" width="30" height="30" fill="#AD3232" />
<rect x="390" y="240" width="30" height="30" fill="#AD3232" />
<rect x="420" y="240" width="30" height="30" fill="#AD3232" />
<rect x="450" y="240" width="30" height="30" fill="#AD3232" />
<rect x="480" y="240" width="30" height="30" fill="#AD3232" />
<rect x="180" y="270" width="30" height="30" fill="#902122" />
<rect x="210" y="270" width="30" height="30" fill="#902122" />
<rect x="240" y="270" width="30" height="30" fill="#902122" />
<rect x="270" y="270" width="30" height="30" fill="#050708" />
<rect x="300" y="270" width="30" height="30" fill="#050708" />
<rect x="330" y="270" width="30" height="30" fill="#AD3232" />
<rect x="360" y="270" width="30" height="30" fill="#AD3232" />
<rect x="390" y="270" width="30" height="30" fill="#AD3232" />
<rect x="420" y="270" width="30" height="30" fill="#AD3232" />
<rect x="450" y="270" width="30" height="30" fill="#AD3232" />
<rect x="480" y="270" width="30" height="30" fill="#AD3232" />
<rect x="210" y="300" width="30" height="30" fill="#902122" />
<rect x="240" y="300" width="30" height="30" fill="#902122" />
<rect x="270" y="300" width="30" height="30" fill="#050708" />
<rect x="300" y="300" width="30" height="30" fill="#AD3232" />
<rect x="330" y="300" width="30" height="30" fill="#AD3232" />
<rect x="360" y="300" width="30" height="30" fill="#AD3232" />
<rect x="390" y="300" width="30" height="30" fill="#AD3232" />
<rect x="420" y="300" width="30" height="30" fill="#AD3232" />
<rect x="450" y="300" width="30" height="30" fill="#AD3232" />
<rect x="480" y="300" width="30" height="30" fill="#AD3232" />
<rect x="270" y="330" width="30" height="30" fill="#050708" />
<rect x="300" y="330" width="30" height="30" fill="#902122" />
<rect x="330" y="330" width="30" height="30" fill="#902122" />
<rect x="360" y="330" width="30" height="30" fill="#AD3232" />
<rect x="390" y="330" width="30" height="30" fill="#AD3232" />
<rect x="420" y="330" width="30" height="30" fill="#AD3232" />
<rect x="450" y="330" width="30" height="30" fill="#AD3232" />
<rect x="480" y="330" width="30" height="30" fill="#AD3232" />
<rect x="300" y="360" width="30" height="30" fill="#902122" />
<rect x="330" y="360" width="30" height="30" fill="#902122" />
<rect x="360" y="360" width="30" height="30" fill="#902122" />
<rect x="390" y="360" width="30" height="30" fill="#902122" />
<rect x="420" y="360" width="30" height="30" fill="#902122" />
<rect x="450" y="360" width="30" height="30" fill="#902122" />
<rect x="360" y="390" width="30" height="30" fill="#902122" />
<rect x="390" y="390" width="30" height="30" fill="#902122" />
<rect x="420" y="390" width="30" height="30" fill="#902122" />
</svg>