<?xml version="1.0" encoding="UTF-8" ?>
<svg version="1.1" width="390" height="390" xmlns="http://www.w3.org/2000/svg">
<rect x="0" y="0" width="30" height="30" fill="#3F3F3F" />
<rect x="30" y="0" width="30" height="30" fill="#363635" />
<rect x="60" y="0" width="30" height="30" fill="#363635" />
<rect x="0" y="30" width="30" height="30" fill="#363635" />
<rect x="30" y="30" width="30" height="30" fill="#626262" />
<rect x="60" y="30" width="30" height="30" fill="#363635" />
<rect x="0" y="60" width="30" height="30" fill="#363635" />
<rect x="30" y="60" width="30" height="30" fill="#363635" />
<rect x="60" y="60" width="30" height="30" fill="#626262" />
<rect x="90" y="60" width="30" height="30" fill="#363635" />
<rect x="60" y="90" width="30" height="30" fill="#363635" />
<rect x="90" y="90" width="30" height="30" fill="#626262" />
<rect x="120" y="90" width="30" height="30" fill="#363635" />
<rect x="90" y="120" width="30" height="30" fill="#363635" />
<rect x="120" y="120" width="30" height="30" fill="#626262" />
<rect x="150" y="120" width="30" height="30" fill="#363635" />
<rect x="120" y="150" width="30" height="30" fill="#363635" />
<rect x="150" y="150" width="30" height="30" fill="#626262" />
<rect x="180" y="150" width="30" height="30" fill="#363635" />
<rect x="150" y="180" width="30" height="30" fill="#363635" />
<rect x="180" y="180" width="30" height="30" fill="#626262" />
<rect x="210" y="180" width="30" height="30" fill="#363635" />
<rect x="270" y="180" width="30" height="30" fill="#2B132F" />
<rect x="180" y="210" width="30" height="30" fill="#363635" />
<rect x="210" y="210" width="30" height="30" fill="#626262" />
<rect x="240" y="210" width="30" height="30" fill="#2B132F" />
<rect x="270" y="210" width="30" height="30" fill="#7F2A90" />
<rect x="300" y="210" width="30" height="30" fill="#2B132F" />
<rect x="210" y="240" width="30" height="30" fill="#2B132F" />
<rect x="240" y="240" width="30" height="30" fill="#370B40" />
<rect x="270" y="240" width="30" height="30" fill="#461853" />
<rect x="300" y="240" width="30" height="30" fill="#632774" />
<rect x="330" y="240" width="30" height="30" fill="#2B132F" />
<rect x="180" y="270" width="30" height="30" fill="#2B132F" />
<rect x="210" y="270" width="30" height="30" fill="#7F2A90" />
<rect x="240" y="270" width="30" height="30" fill="#461853" />
<rect x="270" y="270" width="30" height="30" fill="#370B40" />
<rect x="300" y="270" width="30" height="30" fill="#461853" />
<rect x="330" y="270" width="30" height="30" fill="#632774" />
<rect x="360" y="270" width="30" height="30" fill="#2B132F" />
<rect x="210" y="300" width="30" height="30" fill="#2B132F" />
<rect x="240" y="300" width="30" height="30" fill="#632774" />
<rect x="270" y="300" width="30" height="30" fill="#461853" />
<rect x="300" y="300" width="30" height="30" fill="#370B40" />
<rect x="330" y="300" width="30" height="30" fill="#7F2A90" />
<rect x="360" y="300" width="30" height="30" fill="#2B132F" />
<rect x="240" y="330" width="30" height="30" fill="#2B132F" />
<rect x="270" y="330" width="30" height="30" fill="#632774" />
<rect x="300" y="330" width="30" height="30" fill="#7F2A90" />
<rect x="330" y="330" width="30" height="30" fill="#461853" />
<rect x="360" y="330" width="30" height="30" fill="#2B132F" />
<rect x="270" y="360" width="30" height="30" fill="#2B132F" />
<rect x="300" y="360" width="30" height="30" fill="#2B132F" />
<rect x="330" y="360" width="30" height="30" fill="#2B132F" />
</svg>