<?xml version="1.0" encoding="UTF-8" ?>
<svg version="1.1" width="1050" height="1050" xmlns="http://www.w3.org/2000/svg">
<rect x="420" y="0" width="30" height="30" fill="#3F8C96" />
<rect x="450" y="0" width="30" height="30" fill="#1B5159" />
<rect x="480" y="0" width="30" height="30" fill="#273788" />
<rect x="510" y="0" width="30" height="30" fill="#273788" />
<rect x="540" y="0" width="30" height="30" fill="#273788" />
<rect x="570" y="0" width="30" height="30" fill="#273788" />
<rect x="600" y="0" width="30" height="30" fill="#273788" />
<rect x="630" y="0" width="30" height="30" fill="#273788" />
<rect x="660" y="0" width="30" height="30" fill="#273788" />
<rect x="690" y="0" width="30" height="30" fill="#273788" />
<rect x="720" y="0" width="30" height="30" fill="#273788" />
<rect x="750" y="0" width="30" height="30" fill="#273788" />
<rect x="780" y="0" width="30" height="30" fill="#273788" />
<rect x="810" y="0" width="30" height="30" fill="#273788" />
<rect x="840" y="0" width="30" height="30" fill="#273788" />
<rect x="870" y="0" width="30" height="30" fill="#273788" />
<rect x="900" y="0" width="30" height="30" fill="#273788" />
<rect x="930" y="0" width="30" height="30" fill="#273788" />
<rect x="960" y="0" width="30" height="30" fill="#273788" />
<rect x="990" y="0" width="30" height="30" fill="#7286C2" />
<rect x="1020" y="0" width="30" height="30" fill="#273788" />
<rect x="420" y="30" width="30" height="30" fill="#3F8C96" />
<rect x="450" y="30" width="30" height="30" fill="#1B5159" />
<rect x="480" y="30" width="30" height="30" fill="#273788" />
<rect x="510" y="30" width="30" height="30" fill="#273788" />
<rect x="540" y="30" width="30" height="30" fill="#273788" />
<rect x="570" y="30" width="30" height="30" fill="#273788" />
<rect x="600" y="30" width="30" height="30" fill="#273788" />
<rect x="630" y="30" width="30" height="30" fill="#273788" />
<rect x="660" y="30" width="30" height="30" fill="#7286C2" />
<rect x="690" y="30" width="30" height="30" fill="#273788" />
<rect x="720" y="30" width="30" height="30" fill="#273788" />
<rect x="750" y="30" width="30" height="30" fill="#273788" />
<rect x="780" y="30" width="30" height="30" fill="#273788" />
<rect x="810" y="30" width="30" height="30" fill="#273788" />
<rect x="840" y="30" width="30" height="30" fill="#273788" />
<rect x="870" y="30" width="30" height="30" fill="#273788" />
<rect x="900" y="30" width="30" height="30" fill="#273788" />
<rect x="930" y="30" width="30" height="30" fill="#273788" />
<rect x="960" y="30" width="30" height="30" fill="#273788" />
<rect x="990" y="30" width="30" height="30" fill="#7286C2" />
<rect x="1020" y="30" width="30" height="30" fill="#273788" />
<rect x="420" y="60" width="30" height="30" fill="#3F8C96" />
<rect x="450" y="60" width="30" height="30" fill="#1B5159" />
<rect x="480" y="60" width="30" height="30" fill="#273788" />
<rect x="510" y="60" width="30" height="30" fill="#273788" />
<rect x="540" y="60" width="30" height="30" fill="#273788" />
<rect x="570" y="60" width="30" height="30" fill="#273788" />
<rect x="600" y="60" width="30" height="30" fill="#273788" />
<rect x="630" y="60" width="30" height="30" fill="#273788" />
<rect x="660" y="60" width="30" height="30" fill="#435BA9" />
<rect x="690" y="60" width="30" height="30" fill="#273788" />
<rect x="720" y="60" width="30" height="30" fill="#273788" />
<rect x="750" y="60" width="30" height="30" fill="#273788" />
<rect x="780" y="60" width="30" height="30" fill="#7286C2" />
<rect x="810" y="60" width="30" height="30" fill="#273788" />
<rect x="840" y="60" width="30" height="30" fill="#273788" />
<rect x="870" y="60" width="30" height="30" fill="#273788" />
<rect x="900" y="60" width="30" height="30" fill="#273788" />
<rect x="930" y="60" width="30" height="30" fill="#273788" />
<rect x="960" y="60" width="30" height="30" fill="#273788" />
<rect x="990" y="60" width="30" height="30" fill="#7286C2" />
<rect x="1020" y="60" width="30" height="30" fill="#273788" />
<rect x="450" y="90" width="30" height="30" fill="#3F8C96" />
<rect x="480" y="90" width="30" height="30" fill="#1B5159" />
<rect x="510" y="90" width="30" height="30" fill="#273788" />
<rect x="540" y="90" width="30" height="30" fill="#273788" />
<rect x="570" y="90" width="30" height="30" fill="#273788" />
<rect x="600" y="90" width="30" height="30" fill="#273788" />
<rect x="630" y="90" width="30" height="30" fill="#273788" />
<rect x="660" y="90" width="30" height="30" fill="#435BA9" />
<rect x="690" y="90" width="30" height="30" fill="#273788" />
<rect x="720" y="90" width="30" height="30" fill="#273788" />
<rect x="750" y="90" width="30" height="30" fill="#273788" />
<rect x="780" y="90" width="30" height="30" fill="#435BA9" />
<rect x="810" y="90" width="30" height="30" fill="#273788" />
<rect x="840" y="90" width="30" height="30" fill="#273788" />
<rect x="870" y="90" width="30" height="30" fill="#273788" />
<rect x="900" y="90" width="30" height="30" fill="#273788" />
<rect x="930" y="90" width="30" height="30" fill="#273788" />
<rect x="960" y="90" width="30" height="30" fill="#273788" />
<rect x="990" y="90" width="30" height="30" fill="#435BA9" />
<rect x="1020" y="90" width="30" height="30" fill="#273788" />
<rect x="480" y="120" width="30" height="30" fill="#1B5159" />
<rect x="510" y="120" width="30" height="30" fill="#273788" />
<rect x="540" y="120" width="30" height="30" fill="#273788" />
<rect x="570" y="120" width="30" height="30" fill="#273788" />
<rect x="600" y="120" width="30" height="30" fill="#273788" />
<rect x="630" y="120" width="30" height="30" fill="#273788" />
<rect x="660" y="120" width="30" height="30" fill="#7286C2" />
<rect x="690" y="120" width="30" height="30" fill="#273788" />
<rect x="720" y="120" width="30" height="30" fill="#273788" />
<rect x="750" y="120" width="30" height="30" fill="#273788" />
<rect x="780" y="120" width="30" height="30" fill="#435BA9" />
<rect x="810" y="120" width="30" height="30" fill="#273788" />
<rect x="840" y="120" width="30" height="30" fill="#273788" />
<rect x="870" y="120" width="30" height="30" fill="#273788" />
<rect x="900" y="120" width="30" height="30" fill="#273788" />
<rect x="930" y="120" width="30" height="30" fill="#273788" />
<rect x="960" y="120" width="30" height="30" fill="#273788" />
<rect x="990" y="120" width="30" height="30" fill="#435BA9" />
<rect x="1020" y="120" width="30" height="30" fill="#273788" />
<rect x="480" y="150" width="30" height="30" fill="#3F8C96" />
<rect x="510" y="150" width="30" height="30" fill="#1B5159" />
<rect x="540" y="150" width="30" height="30" fill="#273788" />
<rect x="570" y="150" width="30" height="30" fill="#273788" />
<rect x="600" y="150" width="30" height="30" fill="#273788" />
<rect x="630" y="150" width="30" height="30" fill="#273788" />
<rect x="660" y="150" width="30" height="30" fill="#7286C2" />
<rect x="690" y="150" width="30" height="30" fill="#273788" />
<rect x="720" y="150" width="30" height="30" fill="#273788" />
<rect x="750" y="150" width="30" height="30" fill="#273788" />
<rect x="780" y="150" width="30" height="30" fill="#435BA9" />
<rect x="810" y="150" width="30" height="30" fill="#273788" />
<rect x="840" y="150" width="30" height="30" fill="#273788" />
<rect x="870" y="150" width="30" height="30" fill="#273788" />
<rect x="900" y="150" width="30" height="30" fill="#273788" />
<rect x="930" y="150" width="30" height="30" fill="#273788" />
<rect x="960" y="150" width="30" height="30" fill="#273788" />
<rect x="990" y="150" width="30" height="30" fill="#435BA9" />
<rect x="1020" y="150" width="30" height="30" fill="#273788" />
<rect x="510" y="180" width="30" height="30" fill="#3F8C96" />
<rect x="540" y="180" width="30" height="30" fill="#1B5159" />
<rect x="570" y="180" width="30" height="30" fill="#273788" />
<rect x="600" y="180" width="30" height="30" fill="#273788" />
<rect x="630" y="180" width="30" height="30" fill="#273788" />
<rect x="660" y="180" width="30" height="30" fill="#7286C2" />
<rect x="690" y="180" width="30" height="30" fill="#273788" />
<rect x="720" y="180" width="30" height="30" fill="#273788" />
<rect x="750" y="180" width="30" height="30" fill="#273788" />
<rect x="780" y="180" width="30" height="30" fill="#7286C2" />
<rect x="810" y="180" width="30" height="30" fill="#273788" />
<rect x="840" y="180" width="30" height="30" fill="#273788" />
<rect x="870" y="180" width="30" height="30" fill="#273788" />
<rect x="900" y="180" width="30" height="30" fill="#273788" />
<rect x="930" y="180" width="30" height="30" fill="#273788" />
<rect x="960" y="180" width="30" height="30" fill="#273788" />
<rect x="990" y="180" width="30" height="30" fill="#435BA9" />
<rect x="1020" y="180" width="30" height="30" fill="#273788" />
<rect x="540" y="210" width="30" height="30" fill="#3F8C96" />
<rect x="570" y="210" width="30" height="30" fill="#1B5159" />
<rect x="600" y="210" width="30" height="30" fill="#273788" />
<rect x="630" y="210" width="30" height="30" fill="#273788" />
<rect x="660" y="210" width="30" height="30" fill="#273788" />
<rect x="690" y="210" width="30" height="30" fill="#273788" />
<rect x="720" y="210" width="30" height="30" fill="#273788" />
<rect x="750" y="210" width="30" height="30" fill="#273788" />
<rect x="780" y="210" width="30" height="30" fill="#7286C2" />
<rect x="810" y="210" width="30" height="30" fill="#273788" />
<rect x="840" y="210" width="30" height="30" fill="#273788" />
<rect x="870" y="210" width="30" height="30" fill="#273788" />
<rect x="900" y="210" width="30" height="30" fill="#273788" />
<rect x="930" y="210" width="30" height="30" fill="#273788" />
<rect x="960" y="210" width="30" height="30" fill="#273788" />
<rect x="990" y="210" width="30" height="30" fill="#7286C2" />
<rect x="1020" y="210" width="30" height="30" fill="#273788" />
<rect x="540" y="240" width="30" height="30" fill="#3F8C96" />
<rect x="570" y="240" width="30" height="30" fill="#1B5159" />
<rect x="600" y="240" width="30" height="30" fill="#273788" />
<rect x="630" y="240" width="30" height="30" fill="#273788" />
<rect x="660" y="240" width="30" height="30" fill="#273788" />
<rect x="690" y="240" width="30" height="30" fill="#273788" />
<rect x="720" y="240" width="30" height="30" fill="#273788" />
<rect x="750" y="240" width="30" height="30" fill="#273788" />
<rect x="780" y="240" width="30" height="30" fill="#7286C2" />
<rect x="810" y="240" width="30" height="30" fill="#273788" />
<rect x="840" y="240" width="30" height="30" fill="#7286C2" />
<rect x="870" y="240" width="30" height="30" fill="#273788" />
<rect x="900" y="240" width="30" height="30" fill="#273788" />
<rect x="930" y="240" width="30" height="30" fill="#273788" />
<rect x="960" y="240" width="30" height="30" fill="#273788" />
<rect x="990" y="240" width="30" height="30" fill="#273788" />
<rect x="1020" y="240" width="30" height="30" fill="#273788" />
<rect x="540" y="270" width="30" height="30" fill="#3F8C96" />
<rect x="570" y="270" width="30" height="30" fill="#1B5159" />
<rect x="600" y="270" width="30" height="30" fill="#273788" />
<rect x="630" y="270" width="30" height="30" fill="#273788" />
<rect x="660" y="270" width="30" height="30" fill="#273788" />
<rect x="690" y="270" width="30" height="30" fill="#273788" />
<rect x="720" y="270" width="30" height="30" fill="#273788" />
<rect x="750" y="270" width="30" height="30" fill="#273788" />
<rect x="780" y="270" width="30" height="30" fill="#7286C2" />
<rect x="810" y="270" width="30" height="30" fill="#273788" />
<rect x="840" y="270" width="30" height="30" fill="#435BA9" />
<rect x="870" y="270" width="30" height="30" fill="#273788" />
<rect x="900" y="270" width="30" height="30" fill="#273788" />
<rect x="930" y="270" width="30" height="30" fill="#273788" />
<rect x="960" y="270" width="30" height="30" fill="#273788" />
<rect x="990" y="270" width="30" height="30" fill="#273788" />
<rect x="1020" y="270" width="30" height="30" fill="#273788" />
<rect x="510" y="300" width="30" height="30" fill="#3F8C96" />
<rect x="540" y="300" width="30" height="30" fill="#1B5159" />
<rect x="570" y="300" width="30" height="30" fill="#273788" />
<rect x="600" y="300" width="30" height="30" fill="#273788" />
<rect x="630" y="300" width="30" height="30" fill="#273788" />
<rect x="660" y="300" width="30" height="30" fill="#273788" />
<rect x="690" y="300" width="30" height="30" fill="#273788" />
<rect x="720" y="300" width="30" height="30" fill="#273788" />
<rect x="750" y="300" width="30" height="30" fill="#273788" />
<rect x="780" y="300" width="30" height="30" fill="#273788" />
<rect x="810" y="300" width="30" height="30" fill="#273788" />
<rect x="840" y="300" width="30" height="30" fill="#435BA9" />
<rect x="870" y="300" width="30" height="30" fill="#273788" />
<rect x="900" y="300" width="30" height="30" fill="#273788" />
<rect x="930" y="300" width="30" height="30" fill="#273788" />
<rect x="960" y="300" width="30" height="30" fill="#273788" />
<rect x="990" y="300" width="30" height="30" fill="#273788" />
<rect x="1020" y="300" width="30" height="30" fill="#273788" />
<rect x="510" y="330" width="30" height="30" fill="#3F8C96" />
<rect x="540" y="330" width="30" height="30" fill="#1B5159" />
<rect x="570" y="330" width="30" height="30" fill="#273788" />
<rect x="600" y="330" width="30" height="30" fill="#273788" />
<rect x="630" y="330" width="30" height="30" fill="#273788" />
<rect x="660" y="330" width="30" height="30" fill="#273788" />
<rect x="690" y="330" width="30" height="30" fill="#273788" />
<rect x="720" y="330" width="30" height="30" fill="#273788" />
<rect x="750" y="330" width="30" height="30" fill="#273788" />
<rect x="780" y="330" width="30" height="30" fill="#273788" />
<rect x="810" y="330" width="30" height="30" fill="#273788" />
<rect x="840" y="330" width="30" height="30" fill="#435BA9" />
<rect x="870" y="330" width="30" height="30" fill="#273788" />
<rect x="900" y="330" width="30" height="30" fill="#273788" />
<rect x="930" y="330" width="30" height="30" fill="#273788" />
<rect x="960" y="330" width="30" height="30" fill="#273788" />
<rect x="990" y="330" width="30" height="30" fill="#273788" />
<rect x="1020" y="330" width="30" height="30" fill="#273788" />
<rect x="510" y="360" width="30" height="30" fill="#3F8C96" />
<rect x="540" y="360" width="30" height="30" fill="#1B5159" />
<rect x="570" y="360" width="30" height="30" fill="#273788" />
<rect x="600" y="360" width="30" height="30" fill="#273788" />
<rect x="630" y="360" width="30" height="30" fill="#273788" />
<rect x="660" y="360" width="30" height="30" fill="#273788" />
<rect x="690" y="360" width="30" height="30" fill="#7286C2" />
<rect x="720" y="360" width="30" height="30" fill="#273788" />
<rect x="750" y="360" width="30" height="30" fill="#273788" />
<rect x="780" y="360" width="30" height="30" fill="#273788" />
<rect x="810" y="360" width="30" height="30" fill="#273788" />
<rect x="840" y="360" width="30" height="30" fill="#435BA9" />
<rect x="870" y="360" width="30" height="30" fill="#273788" />
<rect x="900" y="360" width="30" height="30" fill="#273788" />
<rect x="930" y="360" width="30" height="30" fill="#273788" />
<rect x="960" y="360" width="30" height="30" fill="#273788" />
<rect x="990" y="360" width="30" height="30" fill="#273788" />
<rect x="1020" y="360" width="30" height="30" fill="#273788" />
<rect x="480" y="390" width="30" height="30" fill="#3F8C96" />
<rect x="510" y="390" width="30" height="30" fill="#1B5159" />
<rect x="540" y="390" width="30" height="30" fill="#273788" />
<rect x="570" y="390" width="30" height="30" fill="#273788" />
<rect x="600" y="390" width="30" height="30" fill="#273788" />
<rect x="630" y="390" width="30" height="30" fill="#273788" />
<rect x="660" y="390" width="30" height="30" fill="#273788" />
<rect x="690" y="390" width="30" height="30" fill="#7286C2" />
<rect x="720" y="390" width="30" height="30" fill="#273788" />
<rect x="750" y="390" width="30" height="30" fill="#273788" />
<rect x="780" y="390" width="30" height="30" fill="#273788" />
<rect x="810" y="390" width="30" height="30" fill="#273788" />
<rect x="840" y="390" width="30" height="30" fill="#7286C2" />
<rect x="870" y="390" width="30" height="30" fill="#273788" />
<rect x="900" y="390" width="30" height="30" fill="#273788" />
<rect x="930" y="390" width="30" height="30" fill="#273788" />
<rect x="960" y="390" width="30" height="30" fill="#273788" />
<rect x="990" y="390" width="30" height="30" fill="#7286C2" />
<rect x="1020" y="390" width="30" height="30" fill="#273788" />
<rect x="480" y="420" width="30" height="30" fill="#3F8C96" />
<rect x="510" y="420" width="30" height="30" fill="#1B5159" />
<rect x="540" y="420" width="30" height="30" fill="#273788" />
<rect x="570" y="420" width="30" height="30" fill="#273788" />
<rect x="600" y="420" width="30" height="30" fill="#273788" />
<rect x="630" y="420" width="30" height="30" fill="#273788" />
<rect x="660" y="420" width="30" height="30" fill="#273788" />
<rect x="690" y="420" width="30" height="30" fill="#7286C2" />
<rect x="720" y="420" width="30" height="30" fill="#273788" />
<rect x="750" y="420" width="30" height="30" fill="#273788" />
<rect x="780" y="420" width="30" height="30" fill="#273788" />
<rect x="810" y="420" width="30" height="30" fill="#273788" />
<rect x="840" y="420" width="30" height="30" fill="#7286C2" />
<rect x="870" y="420" width="30" height="30" fill="#273788" />
<rect x="900" y="420" width="30" height="30" fill="#273788" />
<rect x="930" y="420" width="30" height="30" fill="#273788" />
<rect x="960" y="420" width="30" height="30" fill="#273788" />
<rect x="990" y="420" width="30" height="30" fill="#435BA9" />
<rect x="1020" y="420" width="30" height="30" fill="#273788" />
<rect x="480" y="450" width="30" height="30" fill="#3F8C96" />
<rect x="510" y="450" width="30" height="30" fill="#1B5159" />
<rect x="540" y="450" width="30" height="30" fill="#273788" />
<rect x="570" y="450" width="30" height="30" fill="#273788" />
<rect x="600" y="450" width="30" height="30" fill="#273788" />
<rect x="630" y="450" width="30" height="30" fill="#273788" />
<rect x="660" y="450" width="30" height="30" fill="#273788" />
<rect x="690" y="450" width="30" height="30" fill="#7286C2" />
<rect x="720" y="450" width="30" height="30" fill="#273788" />
<rect x="750" y="450" width="30" height="30" fill="#273788" />
<rect x="780" y="450" width="30" height="30" fill="#273788" />
<rect x="810" y="450" width="30" height="30" fill="#273788" />
<rect x="840" y="450" width="30" height="30" fill="#273788" />
<rect x="870" y="450" width="30" height="30" fill="#273788" />
<rect x="900" y="450" width="30" height="30" fill="#273788" />
<rect x="930" y="450" width="30" height="30" fill="#273788" />
<rect x="960" y="450" width="30" height="30" fill="#273788" />
<rect x="990" y="450" width="30" height="30" fill="#435BA9" />
<rect x="1020" y="450" width="30" height="30" fill="#273788" />
<rect x="480" y="480" width="30" height="30" fill="#3F8C96" />
<rect x="510" y="480" width="30" height="30" fill="#1B5159" />
<rect x="540" y="480" width="30" height="30" fill="#273788" />
<rect x="570" y="480" width="30" height="30" fill="#273788" />
<rect x="600" y="480" width="30" height="30" fill="#273788" />
<rect x="630" y="480" width="30" height="30" fill="#273788" />
<rect x="660" y="480" width="30" height="30" fill="#273788" />
<rect x="690" y="480" width="30" height="30" fill="#435BA9" />
<rect x="720" y="480" width="30" height="30" fill="#273788" />
<rect x="750" y="480" width="30" height="30" fill="#273788" />
<rect x="780" y="480" width="30" height="30" fill="#273788" />
<rect x="810" y="480" width="30" height="30" fill="#273788" />
<rect x="840" y="480" width="30" height="30" fill="#273788" />
<rect x="870" y="480" width="30" height="30" fill="#273788" />
<rect x="900" y="480" width="30" height="30" fill="#273788" />
<rect x="930" y="480" width="30" height="30" fill="#273788" />
<rect x="960" y="480" width="30" height="30" fill="#273788" />
<rect x="990" y="480" width="30" height="30" fill="#435BA9" />
<rect x="1020" y="480" width="30" height="30" fill="#273788" />
<rect x="450" y="510" width="30" height="30" fill="#3F8C96" />
<rect x="480" y="510" width="30" height="30" fill="#1B5159" />
<rect x="510" y="510" width="30" height="30" fill="#273788" />
<rect x="540" y="510" width="30" height="30" fill="#273788" />
<rect x="570" y="510" width="30" height="30" fill="#273788" />
<rect x="600" y="510" width="30" height="30" fill="#273788" />
<rect x="630" y="510" width="30" height="30" fill="#273788" />
<rect x="660" y="510" width="30" height="30" fill="#273788" />
<rect x="690" y="510" width="30" height="30" fill="#435BA9" />
<rect x="720" y="510" width="30" height="30" fill="#273788" />
<rect x="750" y="510" width="30" height="30" fill="#273788" />
<rect x="780" y="510" width="30" height="30" fill="#273788" />
<rect x="810" y="510" width="30" height="30" fill="#273788" />
<rect x="840" y="510" width="30" height="30" fill="#273788" />
<rect x="870" y="510" width="30" height="30" fill="#273788" />
<rect x="900" y="510" width="30" height="30" fill="#273788" />
<rect x="930" y="510" width="30" height="30" fill="#273788" />
<rect x="960" y="510" width="30" height="30" fill="#273788" />
<rect x="990" y="510" width="30" height="30" fill="#7286C2" />
<rect x="1020" y="510" width="30" height="30" fill="#273788" />
<rect x="450" y="540" width="30" height="30" fill="#3F8C96" />
<rect x="480" y="540" width="30" height="30" fill="#1B5159" />
<rect x="510" y="540" width="30" height="30" fill="#273788" />
<rect x="540" y="540" width="30" height="30" fill="#273788" />
<rect x="570" y="540" width="30" height="30" fill="#273788" />
<rect x="600" y="540" width="30" height="30" fill="#7286C2" />
<rect x="630" y="540" width="30" height="30" fill="#273788" />
<rect x="660" y="540" width="30" height="30" fill="#273788" />
<rect x="690" y="540" width="30" height="30" fill="#7286C2" />
<rect x="720" y="540" width="30" height="30" fill="#273788" />
<rect x="750" y="540" width="30" height="30" fill="#273788" />
<rect x="780" y="540" width="30" height="30" fill="#273788" />
<rect x="810" y="540" width="30" height="30" fill="#273788" />
<rect x="840" y="540" width="30" height="30" fill="#273788" />
<rect x="870" y="540" width="30" height="30" fill="#273788" />
<rect x="900" y="540" width="30" height="30" fill="#273788" />
<rect x="930" y="540" width="30" height="30" fill="#273788" />
<rect x="960" y="540" width="30" height="30" fill="#273788" />
<rect x="990" y="540" width="30" height="30" fill="#7286C2" />
<rect x="1020" y="540" width="30" height="30" fill="#273788" />
<rect x="420" y="570" width="30" height="30" fill="#3F8C96" />
<rect x="450" y="570" width="30" height="30" fill="#3F8C96" />
<rect x="480" y="570" width="30" height="30" fill="#1B5159" />
<rect x="510" y="570" width="30" height="30" fill="#273788" />
<rect x="540" y="570" width="30" height="30" fill="#273788" />
<rect x="570" y="570" width="30" height="30" fill="#273788" />
<rect x="600" y="570" width="30" height="30" fill="#7286C2" />
<rect x="630" y="570" width="30" height="30" fill="#273788" />
<rect x="660" y="570" width="30" height="30" fill="#273788" />
<rect x="690" y="570" width="30" height="30" fill="#273788" />
<rect x="720" y="570" width="30" height="30" fill="#273788" />
<rect x="750" y="570" width="30" height="30" fill="#273788" />
<rect x="780" y="570" width="30" height="30" fill="#273788" />
<rect x="810" y="570" width="30" height="30" fill="#273788" />
<rect x="840" y="570" width="30" height="30" fill="#273788" />
<rect x="870" y="570" width="30" height="30" fill="#7286C2" />
<rect x="900" y="570" width="30" height="30" fill="#273788" />
<rect x="930" y="570" width="30" height="30" fill="#273788" />
<rect x="960" y="570" width="30" height="30" fill="#273788" />
<rect x="990" y="570" width="30" height="30" fill="#435BA9" />
<rect x="1020" y="570" width="30" height="30" fill="#273788" />
<rect x="420" y="600" width="30" height="30" fill="#3F8C96" />
<rect x="450" y="600" width="30" height="30" fill="#1B5159" />
<rect x="480" y="600" width="30" height="30" fill="#273788" />
<rect x="510" y="600" width="30" height="30" fill="#273788" />
<rect x="540" y="600" width="30" height="30" fill="#273788" />
<rect x="570" y="600" width="30" height="30" fill="#273788" />
<rect x="600" y="600" width="30" height="30" fill="#435BA9" />
<rect x="630" y="600" width="30" height="30" fill="#273788" />
<rect x="660" y="600" width="30" height="30" fill="#273788" />
<rect x="690" y="600" width="30" height="30" fill="#273788" />
<rect x="720" y="600" width="30" height="30" fill="#273788" />
<rect x="750" y="600" width="30" height="30" fill="#273788" />
<rect x="780" y="600" width="30" height="30" fill="#273788" />
<rect x="810" y="600" width="30" height="30" fill="#273788" />
<rect x="840" y="600" width="30" height="30" fill="#273788" />
<rect x="870" y="600" width="30" height="30" fill="#435BA9" />
<rect x="900" y="600" width="30" height="30" fill="#273788" />
<rect x="930" y="600" width="30" height="30" fill="#273788" />
<rect x="960" y="600" width="30" height="30" fill="#273788" />
<rect x="990" y="600" width="30" height="30" fill="#273788" />
<rect x="1020" y="600" width="30" height="30" fill="#273788" />
<rect x="390" y="630" width="30" height="30" fill="#3F8C96" />
<rect x="420" y="630" width="30" height="30" fill="#1B5159" />
<rect x="450" y="630" width="30" height="30" fill="#273788" />
<rect x="480" y="630" width="30" height="30" fill="#273788" />
<rect x="510" y="630" width="30" height="30" fill="#273788" />
<rect x="540" y="630" width="30" height="30" fill="#273788" />
<rect x="570" y="630" width="30" height="30" fill="#273788" />
<rect x="600" y="630" width="30" height="30" fill="#435BA9" />
<rect x="630" y="630" width="30" height="30" fill="#273788" />
<rect x="660" y="630" width="30" height="30" fill="#273788" />
<rect x="690" y="630" width="30" height="30" fill="#273788" />
<rect x="720" y="630" width="30" height="30" fill="#273788" />
<rect x="750" y="630" width="30" height="30" fill="#7286C2" />
<rect x="780" y="630" width="30" height="30" fill="#273788" />
<rect x="810" y="630" width="30" height="30" fill="#273788" />
<rect x="840" y="630" width="30" height="30" fill="#273788" />
<rect x="870" y="630" width="30" height="30" fill="#435BA9" />
<rect x="900" y="630" width="30" height="30" fill="#273788" />
<rect x="930" y="630" width="30" height="30" fill="#273788" />
<rect x="960" y="630" width="30" height="30" fill="#273788" />
<rect x="990" y="630" width="30" height="30" fill="#273788" />
<rect x="1020" y="630" width="30" height="30" fill="#273788" />
<rect x="390" y="660" width="30" height="30" fill="#3F8C96" />
<rect x="420" y="660" width="30" height="30" fill="#1B5159" />
<rect x="450" y="660" width="30" height="30" fill="#273788" />
<rect x="480" y="660" width="30" height="30" fill="#273788" />
<rect x="510" y="660" width="30" height="30" fill="#273788" />
<rect x="540" y="660" width="30" height="30" fill="#273788" />
<rect x="570" y="660" width="30" height="30" fill="#273788" />
<rect x="600" y="660" width="30" height="30" fill="#7286C2" />
<rect x="630" y="660" width="30" height="30" fill="#273788" />
<rect x="660" y="660" width="30" height="30" fill="#273788" />
<rect x="690" y="660" width="30" height="30" fill="#273788" />
<rect x="720" y="660" width="30" height="30" fill="#273788" />
<rect x="750" y="660" width="30" height="30" fill="#7286C2" />
<rect x="780" y="660" width="30" height="30" fill="#273788" />
<rect x="810" y="660" width="30" height="30" fill="#273788" />
<rect x="840" y="660" width="30" height="30" fill="#273788" />
<rect x="870" y="660" width="30" height="30" fill="#7286C2" />
<rect x="900" y="660" width="30" height="30" fill="#273788" />
<rect x="930" y="660" width="30" height="30" fill="#273788" />
<rect x="960" y="660" width="30" height="30" fill="#273788" />
<rect x="990" y="660" width="30" height="30" fill="#273788" />
<rect x="1020" y="660" width="30" height="30" fill="#273788" />
<rect x="390" y="690" width="30" height="30" fill="#3F8C96" />
<rect x="420" y="690" width="30" height="30" fill="#1B5159" />
<rect x="450" y="690" width="30" height="30" fill="#273788" />
<rect x="480" y="690" width="30" height="30" fill="#273788" />
<rect x="510" y="690" width="30" height="30" fill="#273788" />
<rect x="540" y="690" width="30" height="30" fill="#273788" />
<rect x="570" y="690" width="30" height="30" fill="#273788" />
<rect x="600" y="690" width="30" height="30" fill="#7286C2" />
<rect x="630" y="690" width="30" height="30" fill="#273788" />
<rect x="660" y="690" width="30" height="30" fill="#273788" />
<rect x="690" y="690" width="30" height="30" fill="#273788" />
<rect x="720" y="690" width="30" height="30" fill="#273788" />
<rect x="750" y="690" width="30" height="30" fill="#435BA9" />
<rect x="780" y="690" width="30" height="30" fill="#273788" />
<rect x="810" y="690" width="30" height="30" fill="#273788" />
<rect x="840" y="690" width="30" height="30" fill="#273788" />
<rect x="870" y="690" width="30" height="30" fill="#7286C2" />
<rect x="900" y="690" width="30" height="30" fill="#273788" />
<rect x="930" y="690" width="30" height="30" fill="#273788" />
<rect x="960" y="690" width="30" height="30" fill="#273788" />
<rect x="990" y="690" width="30" height="30" fill="#273788" />
<rect x="1020" y="690" width="30" height="30" fill="#273788" />
<rect x="390" y="720" width="30" height="30" fill="#3F8C96" />
<rect x="420" y="720" width="30" height="30" fill="#1B5159" />
<rect x="450" y="720" width="30" height="30" fill="#273788" />
<rect x="480" y="720" width="30" height="30" fill="#7286C2" />
<rect x="510" y="720" width="30" height="30" fill="#273788" />
<rect x="540" y="720" width="30" height="30" fill="#273788" />
<rect x="570" y="720" width="30" height="30" fill="#273788" />
<rect x="600" y="720" width="30" height="30" fill="#273788" />
<rect x="630" y="720" width="30" height="30" fill="#273788" />
<rect x="660" y="720" width="30" height="30" fill="#273788" />
<rect x="690" y="720" width="30" height="30" fill="#273788" />
<rect x="720" y="720" width="30" height="30" fill="#273788" />
<rect x="750" y="720" width="30" height="30" fill="#435BA9" />
<rect x="780" y="720" width="30" height="30" fill="#273788" />
<rect x="810" y="720" width="30" height="30" fill="#273788" />
<rect x="840" y="720" width="30" height="30" fill="#273788" />
<rect x="870" y="720" width="30" height="30" fill="#273788" />
<rect x="900" y="720" width="30" height="30" fill="#273788" />
<rect x="930" y="720" width="30" height="30" fill="#273788" />
<rect x="960" y="720" width="30" height="30" fill="#273788" />
<rect x="990" y="720" width="30" height="30" fill="#435BA9" />
<rect x="1020" y="720" width="30" height="30" fill="#273788" />
<rect x="390" y="750" width="30" height="30" fill="#3F8C96" />
<rect x="420" y="750" width="30" height="30" fill="#1B5159" />
<rect x="450" y="750" width="30" height="30" fill="#273788" />
<rect x="480" y="750" width="30" height="30" fill="#435BA9" />
<rect x="510" y="750" width="30" height="30" fill="#273788" />
<rect x="540" y="750" width="30" height="30" fill="#273788" />
<rect x="570" y="750" width="30" height="30" fill="#273788" />
<rect x="600" y="750" width="30" height="30" fill="#273788" />
<rect x="630" y="750" width="30" height="30" fill="#273788" />
<rect x="660" y="750" width="30" height="30" fill="#273788" />
<rect x="690" y="750" width="30" height="30" fill="#273788" />
<rect x="720" y="750" width="30" height="30" fill="#273788" />
<rect x="750" y="750" width="30" height="30" fill="#435BA9" />
<rect x="780" y="750" width="30" height="30" fill="#273788" />
<rect x="810" y="750" width="30" height="30" fill="#273788" />
<rect x="840" y="750" width="30" height="30" fill="#273788" />
<rect x="870" y="750" width="30" height="30" fill="#273788" />
<rect x="900" y="750" width="30" height="30" fill="#273788" />
<rect x="930" y="750" width="30" height="30" fill="#273788" />
<rect x="960" y="750" width="30" height="30" fill="#273788" />
<rect x="990" y="750" width="30" height="30" fill="#7286C2" />
<rect x="1020" y="750" width="30" height="30" fill="#273788" />
<rect x="360" y="780" width="30" height="30" fill="#3F8C96" />
<rect x="390" y="780" width="30" height="30" fill="#1B5159" />
<rect x="420" y="780" width="30" height="30" fill="#273788" />
<rect x="450" y="780" width="30" height="30" fill="#273788" />
<rect x="480" y="780" width="30" height="30" fill="#435BA9" />
<rect x="510" y="780" width="30" height="30" fill="#273788" />
<rect x="540" y="780" width="30" height="30" fill="#273788" />
<rect x="570" y="780" width="30" height="30" fill="#273788" />
<rect x="600" y="780" width="30" height="30" fill="#7286C2" />
<rect x="630" y="780" width="30" height="30" fill="#273788" />
<rect x="660" y="780" width="30" height="30" fill="#273788" />
<rect x="690" y="780" width="30" height="30" fill="#273788" />
<rect x="720" y="780" width="30" height="30" fill="#273788" />
<rect x="750" y="780" width="30" height="30" fill="#7286C2" />
<rect x="780" y="780" width="30" height="30" fill="#273788" />
<rect x="810" y="780" width="30" height="30" fill="#273788" />
<rect x="840" y="780" width="30" height="30" fill="#273788" />
<rect x="870" y="780" width="30" height="30" fill="#273788" />
<rect x="900" y="780" width="30" height="30" fill="#273788" />
<rect x="930" y="780" width="30" height="30" fill="#273788" />
<rect x="960" y="780" width="30" height="30" fill="#273788" />
<rect x="990" y="780" width="30" height="30" fill="#435BA9" />
<rect x="1020" y="780" width="30" height="30" fill="#273788" />
<rect x="360" y="810" width="30" height="30" fill="#3F8C96" />
<rect x="390" y="810" width="30" height="30" fill="#1B5159" />
<rect x="420" y="810" width="30" height="30" fill="#273788" />
<rect x="450" y="810" width="30" height="30" fill="#273788" />
<rect x="480" y="810" width="30" height="30" fill="#435BA9" />
<rect x="510" y="810" width="30" height="30" fill="#273788" />
<rect x="540" y="810" width="30" height="30" fill="#273788" />
<rect x="570" y="810" width="30" height="30" fill="#273788" />
<rect x="600" y="810" width="30" height="30" fill="#7286C2" />
<rect x="630" y="810" width="30" height="30" fill="#273788" />
<rect x="660" y="810" width="30" height="30" fill="#273788" />
<rect x="690" y="810" width="30" height="30" fill="#273788" />
<rect x="720" y="810" width="30" height="30" fill="#273788" />
<rect x="750" y="810" width="30" height="30" fill="#273788" />
<rect x="780" y="810" width="30" height="30" fill="#273788" />
<rect x="810" y="810" width="30" height="30" fill="#273788" />
<rect x="840" y="810" width="30" height="30" fill="#273788" />
<rect x="870" y="810" width="30" height="30" fill="#273788" />
<rect x="900" y="810" width="30" height="30" fill="#273788" />
<rect x="930" y="810" width="30" height="30" fill="#273788" />
<rect x="960" y="810" width="30" height="30" fill="#273788" />
<rect x="990" y="810" width="30" height="30" fill="#435BA9" />
<rect x="1020" y="810" width="30" height="30" fill="#273788" />
<rect x="360" y="840" width="30" height="30" fill="#3F8C96" />
<rect x="390" y="840" width="30" height="30" fill="#1B5159" />
<rect x="420" y="840" width="30" height="30" fill="#273788" />
<rect x="450" y="840" width="30" height="30" fill="#273788" />
<rect x="480" y="840" width="30" height="30" fill="#7286C2" />
<rect x="510" y="840" width="30" height="30" fill="#273788" />
<rect x="540" y="840" width="30" height="30" fill="#273788" />
<rect x="570" y="840" width="30" height="30" fill="#273788" />
<rect x="600" y="840" width="30" height="30" fill="#7286C2" />
<rect x="630" y="840" width="30" height="30" fill="#273788" />
<rect x="660" y="840" width="30" height="30" fill="#273788" />
<rect x="690" y="840" width="30" height="30" fill="#7286C2" />
<rect x="720" y="840" width="30" height="30" fill="#273788" />
<rect x="750" y="840" width="30" height="30" fill="#273788" />
<rect x="780" y="840" width="30" height="30" fill="#273788" />
<rect x="810" y="840" width="30" height="30" fill="#273788" />
<rect x="840" y="840" width="30" height="30" fill="#273788" />
<rect x="870" y="840" width="30" height="30" fill="#7286C2" />
<rect x="900" y="840" width="30" height="30" fill="#273788" />
<rect x="930" y="840" width="30" height="30" fill="#273788" />
<rect x="960" y="840" width="30" height="30" fill="#273788" />
<rect x="990" y="840" width="30" height="30" fill="#7286C2" />
<rect x="1020" y="840" width="30" height="30" fill="#273788" />
<rect x="360" y="870" width="30" height="30" fill="#3F8C96" />
<rect x="390" y="870" width="30" height="30" fill="#1B5159" />
<rect x="420" y="870" width="30" height="30" fill="#273788" />
<rect x="450" y="870" width="30" height="30" fill="#273788" />
<rect x="480" y="870" width="30" height="30" fill="#7286C2" />
<rect x="510" y="870" width="30" height="30" fill="#273788" />
<rect x="540" y="870" width="30" height="30" fill="#273788" />
<rect x="570" y="870" width="30" height="30" fill="#273788" />
<rect x="600" y="870" width="30" height="30" fill="#435BA9" />
<rect x="630" y="870" width="30" height="30" fill="#273788" />
<rect x="660" y="870" width="30" height="30" fill="#273788" />
<rect x="690" y="870" width="30" height="30" fill="#7286C2" />
<rect x="720" y="870" width="30" height="30" fill="#273788" />
<rect x="750" y="870" width="30" height="30" fill="#273788" />
<rect x="780" y="870" width="30" height="30" fill="#273788" />
<rect x="810" y="870" width="30" height="30" fill="#273788" />
<rect x="840" y="870" width="30" height="30" fill="#273788" />
<rect x="870" y="870" width="30" height="30" fill="#7286C2" />
<rect x="900" y="870" width="30" height="30" fill="#273788" />
<rect x="930" y="870" width="30" height="30" fill="#273788" />
<rect x="960" y="870" width="30" height="30" fill="#273788" />
<rect x="990" y="870" width="30" height="30" fill="#7286C2" />
<rect x="1020" y="870" width="30" height="30" fill="#273788" />
<rect x="360" y="900" width="30" height="30" fill="#3F8C96" />
<rect x="390" y="900" width="30" height="30" fill="#1B5159" />
<rect x="420" y="900" width="30" height="30" fill="#273788" />
<rect x="450" y="900" width="30" height="30" fill="#273788" />
<rect x="480" y="900" width="30" height="30" fill="#7286C2" />
<rect x="510" y="900" width="30" height="30" fill="#273788" />
<rect x="540" y="900" width="30" height="30" fill="#273788" />
<rect x="570" y="900" width="30" height="30" fill="#273788" />
<rect x="600" y="900" width="30" height="30" fill="#435BA9" />
<rect x="630" y="900" width="30" height="30" fill="#273788" />
<rect x="660" y="900" width="30" height="30" fill="#273788" />
<rect x="690" y="900" width="30" height="30" fill="#435BA9" />
<rect x="720" y="900" width="30" height="30" fill="#273788" />
<rect x="750" y="900" width="30" height="30" fill="#273788" />
<rect x="780" y="900" width="30" height="30" fill="#273788" />
<rect x="810" y="900" width="30" height="30" fill="#273788" />
<rect x="840" y="900" width="30" height="30" fill="#273788" />
<rect x="870" y="900" width="30" height="30" fill="#7286C2" />
<rect x="900" y="900" width="30" height="30" fill="#273788" />
<rect x="930" y="900" width="30" height="30" fill="#273788" />
<rect x="960" y="900" width="30" height="30" fill="#273788" />
<rect x="990" y="900" width="30" height="30" fill="#7286C2" />
<rect x="1020" y="900" width="30" height="30" fill="#273788" />
<rect x="360" y="930" width="30" height="30" fill="#3F8C96" />
<rect x="390" y="930" width="30" height="30" fill="#3F8C96" />
<rect x="420" y="930" width="30" height="30" fill="#1B5159" />
<rect x="450" y="930" width="30" height="30" fill="#273788" />
<rect x="480" y="930" width="30" height="30" fill="#273788" />
<rect x="510" y="930" width="30" height="30" fill="#273788" />
<rect x="540" y="930" width="30" height="30" fill="#273788" />
<rect x="570" y="930" width="30" height="30" fill="#273788" />
<rect x="600" y="930" width="30" height="30" fill="#7286C2" />
<rect x="630" y="930" width="30" height="30" fill="#273788" />
<rect x="660" y="930" width="30" height="30" fill="#273788" />
<rect x="690" y="930" width="30" height="30" fill="#435BA9" />
<rect x="720" y="930" width="30" height="30" fill="#273788" />
<rect x="750" y="930" width="30" height="30" fill="#273788" />
<rect x="780" y="930" width="30" height="30" fill="#273788" />
<rect x="810" y="930" width="30" height="30" fill="#273788" />
<rect x="840" y="930" width="30" height="30" fill="#273788" />
<rect x="870" y="930" width="30" height="30" fill="#435BA9" />
<rect x="900" y="930" width="30" height="30" fill="#273788" />
<rect x="930" y="930" width="30" height="30" fill="#273788" />
<rect x="960" y="930" width="30" height="30" fill="#273788" />
<rect x="990" y="930" width="30" height="30" fill="#273788" />
<rect x="1020" y="930" width="30" height="30" fill="#273788" />
<rect x="390" y="960" width="30" height="30" fill="#3F8C96" />
<rect x="420" y="960" width="30" height="30" fill="#1B5159" />
<rect x="450" y="960" width="30" height="30" fill="#273788" />
<rect x="480" y="960" width="30" height="30" fill="#273788" />
<rect x="510" y="960" width="30" height="30" fill="#273788" />
<rect x="540" y="960" width="30" height="30" fill="#273788" />
<rect x="570" y="960" width="30" height="30" fill="#273788" />
<rect x="600" y="960" width="30" height="30" fill="#273788" />
<rect x="630" y="960" width="30" height="30" fill="#273788" />
<rect x="660" y="960" width="30" height="30" fill="#273788" />
<rect x="690" y="960" width="30" height="30" fill="#7286C2" />
<rect x="720" y="960" width="30" height="30" fill="#273788" />
<rect x="750" y="960" width="30" height="30" fill="#273788" />
<rect x="780" y="960" width="30" height="30" fill="#273788" />
<rect x="810" y="960" width="30" height="30" fill="#273788" />
<rect x="840" y="960" width="30" height="30" fill="#273788" />
<rect x="870" y="960" width="30" height="30" fill="#7286C2" />
<rect x="900" y="960" width="30" height="30" fill="#273788" />
<rect x="930" y="960" width="30" height="30" fill="#273788" />
<rect x="960" y="960" width="30" height="30" fill="#273788" />
<rect x="990" y="960" width="30" height="30" fill="#273788" />
<rect x="1020" y="960" width="30" height="30" fill="#273788" />
<rect x="390" y="990" width="30" height="30" fill="#3F8C96" />
<rect x="420" y="990" width="30" height="30" fill="#3F8C96" />
<rect x="450" y="990" width="30" height="30" fill="#1B5159" />
<rect x="480" y="990" width="30" height="30" fill="#273788" />
<rect x="510" y="990" width="30" height="30" fill="#273788" />
<rect x="540" y="990" width="30" height="30" fill="#273788" />
<rect x="570" y="990" width="30" height="30" fill="#273788" />
<rect x="600" y="990" width="30" height="30" fill="#273788" />
<rect x="630" y="990" width="30" height="30" fill="#273788" />
<rect x="660" y="990" width="30" height="30" fill="#273788" />
<rect x="690" y="990" width="30" height="30" fill="#273788" />
<rect x="720" y="990" width="30" height="30" fill="#273788" />
<rect x="750" y="990" width="30" height="30" fill="#273788" />
<rect x="780" y="990" width="30" height="30" fill="#273788" />
<rect x="810" y="990" width="30" height="30" fill="#273788" />
<rect x="840" y="990" width="30" height="30" fill="#273788" />
<rect x="870" y="990" width="30" height="30" fill="#7286C2" />
<rect x="900" y="990" width="30" height="30" fill="#273788" />
<rect x="930" y="990" width="30" height="30" fill="#273788" />
<rect x="960" y="990" width="30" height="30" fill="#273788" />
<rect x="990" y="990" width="30" height="30" fill="#273788" />
<rect x="1020" y="990" width="30" height="30" fill="#273788" />
<rect x="420" y="1020" width="30" height="30" fill="#3F8C96" />
<rect x="450" y="1020" width="30" height="30" fill="#1B5159" />
<rect x="480" y="1020" width="30" height="30" fill="#273788" />
<rect x="510" y="1020" width="30" height="30" fill="#273788" />
<rect x="540" y="1020" width="30" height="30" fill="#273788" />
<rect x="570" y="1020" width="30" height="30" fill="#273788" />
<rect x="600" y="1020" width="30" height="30" fill="#273788" />
<rect x="630" y="1020" width="30" height="30" fill="#273788" />
<rect x="660" y="1020" width="30" height="30" fill="#273788" />
<rect x="690" y="1020" width="30" height="30" fill="#273788" />
<rect x="720" y="1020" width="30" height="30" fill="#273788" />
<rect x="750" y="1020" width="30" height="30" fill="#273788" />
<rect x="780" y="1020" width="30" height="30" fill="#273788" />
<rect x="810" y="1020" width="30" height="30" fill="#273788" />
<rect x="840" y="1020" width="30" height="30" fill="#273788" />
<rect x="870" y="1020" width="30" height="30" fill="#273788" />
<rect x="900" y="1020" width="30" height="30" fill="#273788" />
<rect x="930" y="1020" width="30" height="30" fill="#273788" />
<rect x="960" y="1020" width="30" height="30" fill="#273788" />
<rect x="990" y="1020" width="30" height="30" fill="#273788" />
<rect x="1020" y="1020" width="30" height="30" fill="#273788" />
</svg>